<?xml version="1.0" encoding="UTF-8" standalone="no"?>
<svg width="32px" height="28px" viewBox="0 0 32 28" version="1.1" xmlns="http://www.w3.org/2000/svg" xmlns:xlink="http://www.w3.org/1999/xlink" xmlns:sketch="http://www.bohemiancoding.com/sketch/ns">
    <!-- Generator: Sketch 3.0.4 (8054) - http://www.bohemiancoding.com/sketch -->
    <title>ico_skiing</title>
    <desc>Created with Sketch.</desc>
    <defs></defs>
    <g id="Page-1" stroke="none" stroke-width="1" fill="none" fill-rule="evenodd" sketch:type="MSPage">
        <g id="main" sketch:type="MSArtboardGroup" transform="translate(-1068.000000, -1571.000000)" fill="#FFFFFF" opacity="0.5">
            <g id="-5" sketch:type="MSLayerGroup" transform="translate(840.000000, 1120.000000)">
                <g id="Group-2" transform="translate(0.000000, 250.000000)" sketch:type="MSShapeGroup">
                    <g id="ico_skiing" transform="translate(228.000000, 198.000000)">
                        <path d="M32,27.1167857 L24.4705882,6.86678571 L20.7058824,14.5810714 L16,3 L11.2941176,14.5810714 L7.52941176,6.86678571 L0,27.1167857 L5.64705882,27.1167857 L4.70588235,30.0096429 L27.2941176,30.0096429 L26.3529412,27.1167857 L32,27.1167857 L32,27.1167857 Z M24.4705882,10.7239286 L29.1764706,25.1882143 L25.4117647,25.1882143 L21.6470588,16.5096429 L24.4705882,10.7239286 L24.4705882,10.7239286 Z M2.82352941,25.1882143 L7.52941176,10.7239286 L10.3529412,16.5096429 L6.58823529,25.1882143 L2.82352941,25.1882143 L2.82352941,25.1882143 Z M7.52941176,28.0810714 L16,7.83107143 L24.4705882,28.0810714 L7.52941176,28.0810714 L7.52941176,28.0810714 Z" id="Imported-Layers"></path>
                    </g>
                </g>
            </g>
        </g>
    </g>
</svg>