<?xml version="1.0" encoding="UTF-8" standalone="no"?>
<svg width="38px" height="31px" viewBox="0 0 38 31" version="1.1" xmlns="http://www.w3.org/2000/svg" xmlns:xlink="http://www.w3.org/1999/xlink" xmlns:sketch="http://www.bohemiancoding.com/sketch/ns">
    <!-- Generator: Sketch 3.1 (8751) - http://www.bohemiancoding.com/sketch -->
    <title>ico_calendar</title>
    <desc>Created with Sketch.</desc>
    <defs></defs>
    <g id="Page-1" stroke="none" stroke-width="1" fill="none" fill-rule="evenodd" sketch:type="MSPage">
        <g id="2_2_inner_1" sketch:type="MSArtboardGroup" transform="translate(-899.000000, -920.000000)" fill="#4D5658">
            <g id="3" sketch:type="MSLayerGroup" transform="translate(0.000000, 840.000000)">
                <g id="Group-3" transform="translate(900.000000, 79.000000)" sketch:type="MSShapeGroup">
                    <g id="ico_calendar" transform="translate(0.000000, 2.000000)">
                        <path d="M11.4615733,3.80645161 L11.4615733,1.80645161 L8.41970667,1.80645161 L8.41970667,3.80645161 L11.4615733,3.80645161 Z M19.5209333,3.80645161 L19.5209333,1.80645161 L16.4790667,1.80645161 L16.4790667,3.80645161 L19.5209333,3.80645161 Z M27.5802933,3.80645161 L27.5802933,1.80645161 L24.5384267,1.80645161 L24.5384267,3.80645161 L27.5802933,3.80645161 Z M14.10904,12.6883226 L14.10904,10.6883226 L11.1623733,10.6883226 L11.1623733,12.6883226 L14.10904,12.6883226 Z M19.4733333,12.6883226 L19.4733333,10.6883226 L16.5266667,10.6883226 L16.5266667,12.6883226 L19.4733333,12.6883226 Z M24.8376267,12.6883226 L24.8376267,10.6883226 L21.89096,10.6883226 L21.89096,12.6883226 L24.8376267,12.6883226 Z M30.2023733,12.6883226 L30.2023733,10.6883226 L27.2557067,10.6883226 L27.2557067,12.6883226 L30.2023733,12.6883226 Z M8.74429333,16.6774194 L8.74429333,14.6774194 L5.79762667,14.6774194 L5.79762667,16.6774194 L8.74429333,16.6774194 Z M14.10904,16.6774194 L14.10904,14.6774194 L11.1623733,14.6774194 L11.1623733,16.6774194 L14.10904,16.6774194 Z M19.4733333,16.6774194 L19.4733333,14.6774194 L16.5266667,14.6774194 L16.5266667,16.6774194 L19.4733333,16.6774194 Z M24.8376267,16.6774194 L24.8376267,14.6774194 L21.89096,14.6774194 L21.89096,16.6774194 L24.8376267,16.6774194 Z M30.2023733,16.6774194 L30.2023733,14.6774194 L27.2557067,14.6774194 L27.2557067,16.6774194 L30.2023733,16.6774194 Z M8.74429333,20.6665161 L8.74429333,18.6665161 L5.79762667,18.6665161 L5.79762667,20.6665161 L8.74429333,20.6665161 Z M14.10904,20.6665161 L14.10904,18.6665161 L11.1623733,18.6665161 L11.1623733,20.6665161 L14.10904,20.6665161 Z M19.4733333,20.6665161 L19.4733333,18.6665161 L16.5266667,18.6665161 L16.5266667,20.6665161 L19.4733333,20.6665161 Z M24.8376267,20.6665161 L24.8376267,18.6665161 L21.89096,18.6665161 L21.89096,20.6665161 L24.8376267,20.6665161 Z M30.2023733,20.6665161 L30.2023733,18.6665161 L27.2557067,18.6665161 L27.2557067,20.6665161 L30.2023733,20.6665161 Z M8.74429333,24.6560645 L8.74429333,22.6560645 L5.79762667,22.6560645 L5.79762667,24.6560645 L8.74429333,24.6560645 Z M14.10904,24.6560645 L14.10904,22.6560645 L11.1623733,22.6560645 L11.1623733,24.6560645 L14.10904,24.6560645 Z M19.4733333,24.6560645 L19.4733333,22.6560645 L16.5266667,22.6560645 L16.5266667,24.6560645 L19.4733333,24.6560645 Z" id="Stroke-3"></path>
                        <path d="M4.91096,4.76329032 C4.91096,5.31557507 5.35867525,5.76329032 5.91096,5.76329032 C6.46324475,5.76329032 6.91096,5.31557507 6.91096,4.76329032 L6.91096,0.849612903 C6.91096,0.297328153 6.46324475,-0.150387097 5.91096,-0.150387097 C5.35867525,-0.150387097 4.91096,0.297328153 4.91096,0.849612903 L4.91096,4.76329032 Z M12.97032,4.76329032 C12.97032,5.31557507 13.4180353,5.76329032 13.97032,5.76329032 C14.5226047,5.76329032 14.97032,5.31557507 14.97032,4.76329032 L14.97032,0.849612903 C14.97032,0.297328153 14.5226047,-0.150387097 13.97032,-0.150387097 C13.4180353,-0.150387097 12.97032,0.297328153 12.97032,0.849612903 L12.97032,4.76329032 Z M21.02968,4.76329032 C21.02968,5.31557507 21.4773953,5.76329032 22.02968,5.76329032 C22.5819647,5.76329032 23.02968,5.31557507 23.02968,4.76329032 L23.02968,0.849612903 C23.02968,0.297328153 22.5819647,-0.150387097 22.02968,-0.150387097 C21.4773953,-0.150387097 21.02968,0.297328153 21.02968,0.849612903 L21.02968,4.76329032 Z M29.08904,4.76329032 C29.08904,5.31557507 29.5367553,5.76329032 30.08904,5.76329032 C30.6413247,5.76329032 31.08904,5.31557507 31.08904,4.76329032 L31.08904,0.849612903 C31.08904,0.297328153 30.6413247,-0.150387097 30.08904,-0.150387097 C29.5367553,-0.150387097 29.08904,0.297328153 29.08904,0.849612903 L29.08904,4.76329032 Z" id="Stroke-2"></path>
                        <path d="M34.0757067,5.51612903 L34.0757067,26.2903226 C34.0757067,27.2275075 33.3002713,28 32.3557067,28 L3.64429333,28 C2.69972871,28 1.92429333,27.2275075 1.92429333,26.2903226 L1.92429333,5.51612903 C1.92429333,4.57894416 2.69972871,3.80645161 3.64429333,3.80645161 L3.64429333,1.80645161 C1.59685796,1.80645161 -0.0757066667,3.47266875 -0.0757066667,5.51612903 L-0.0757066667,26.2903226 C-0.0757066667,28.3337829 1.59685796,30 3.64429333,30 L32.3557067,30 C34.403142,30 36.0757067,28.3337829 36.0757067,26.2903226 L36.0757067,5.51612903 C36.0757067,3.47266875 34.403142,1.80645161 32.3557067,1.80645161 L32.3557067,3.80645161 C33.3002713,3.80645161 34.0757067,4.57894416 34.0757067,5.51612903 Z" id="Stroke-1"></path>
                    </g>
                </g>
            </g>
        </g>
    </g>
</svg>