<?xml version="1.0" encoding="UTF-8" standalone="no"?>
<svg width="18px" height="31px" viewBox="0 0 18 31" version="1.1" xmlns="http://www.w3.org/2000/svg" xmlns:xlink="http://www.w3.org/1999/xlink" xmlns:sketch="http://www.bohemiancoding.com/sketch/ns">
    <!-- Generator: Sketch 3.0.4 (8054) - http://www.bohemiancoding.com/sketch -->
    <title>ico_microphone</title>
    <desc>Created with Sketch.</desc>
    <defs></defs>
    <g id="Page-1" stroke="none" stroke-width="1" fill="none" fill-rule="evenodd" sketch:type="MSPage">
        <g id="main" sketch:type="MSArtboardGroup" transform="translate(-235.000000, -1319.000000)" fill="#FFFFFF" opacity="0.5">
            <g id="-6" sketch:type="MSLayerGroup" transform="translate(0.000000, 1120.000000)">
                <g id="Group" sketch:type="MSShapeGroup">
                    <g id="ico_microphone" transform="translate(228.000000, 198.000000)">
                        <g id="Imported-Layers" transform="translate(7.000000, 1.000000)">
                            <path d="M9,19 C11.75,19 14,16.862 14,14.25 L14,4.75 C14,2.138 11.75,0 9,0 C6.25,0 4,2.138 4,4.75 L4,14.25 C4,16.862 6.25,19 9,19 L9,19 Z M6,5 C6,3.254 7.162,2 9,2 C10.838,2 12,3.254 12,5 L12,14 C12,15.746 10.838,17 9,17 C7.162,17 6,15.746 6,14 L6,5 L6,5 Z" id="Fill-1"></path>
                            <path d="M18,14 L18,8 L15,8 L15,10 L16,10 L16,14 C16,18.008 13.213,21 9,21 C4.787,21 2,18.008 2,14 L2,10 L3,10 L3,8 L0,8 L0,14 C0,18.681 3.33,22.471 8,22.948 L8,26 L4,26 C3.032,26 2.306,25.956 2,27 L0.998,29 C0.692,30.044 1.016,31 1.984,31 L15.789,31 C16.757,31 17.081,30.044 16.775,29 L16,27 C15.694,25.956 14.695,26 13.727,26 L10,26 L10,22.948 C14.67,22.471 18,18.681 18,14 L18,14 Z M15,28 L15.001,29 L2.998,29 L3,28 L15,28 L15,28 Z" id="Fill-2"></path>
                        </g>
                    </g>
                </g>
            </g>
        </g>
    </g>
</svg>