<?xml version="1.0" encoding="UTF-8" standalone="no"?>
<svg width="24px" height="30px" viewBox="0 0 24 30" version="1.1" xmlns="http://www.w3.org/2000/svg" xmlns:xlink="http://www.w3.org/1999/xlink" xmlns:sketch="http://www.bohemiancoding.com/sketch/ns">
    <!-- Generator: Sketch 3.0.4 (8054) - http://www.bohemiancoding.com/sketch -->
    <title>ico_hiking</title>
    <desc>Created with Sketch.</desc>
    <defs></defs>
    <g id="Page-1" stroke="none" stroke-width="1" fill="none" fill-rule="evenodd" sketch:type="MSPage">
        <g id="main" sketch:type="MSArtboardGroup" transform="translate(-512.000000, -819.000000)" fill="#FFFFFF">
            <g id="-3" sketch:type="MSLayerGroup" transform="translate(0.000000, 620.000000)">
                <g id="Group-2" transform="translate(280.000000, 0.000000)" sketch:type="MSShapeGroup">
                    <g id="ico_hiking" transform="translate(228.000000, 198.000000)">
                        <g id="icon_w_hiking-2" transform="translate(5.000000, 1.000000)">
                            <path d="M11.1542086,8.39312429 C12.8335567,8.55184819 13.3579583,8.95803433 13.8541084,9.32046414 C14.3502585,9.68289395 14.6302625,10.0245487 15.150068,11.2002088 C15.6698735,12.3758688 16.1980745,13.9939334 16.1980745,13.9939334 C16.1980745,13.9939334 17.8554217,15.1865077 18.6930428,15.9132058 C19.5306638,16.6399039 19.7265254,18.2906326 19.1442109,19.1563214 C18.5618964,20.0220101 17.9322714,20.61364 16.7414131,20.61364 C15.5280025,20.61364 14.8828112,20.0343284 14.8828112,20.0343284 L15.5280022,20.7650709 C15.5280022,20.7650709 15.5280025,26.4527179 15.5280025,27.2877037 C15.5280025,28.1226895 14.9470978,29.7795459 13.2168843,29.9448891 C11.4866708,30.1102323 10.0478598,28.960188 9.95703788,27.3532156 C9.86621594,25.7462433 9.80959028,24.8597801 9.80959028,24.8597801 C9.80959028,24.8597801 8.81465488,27.3357506 8.36526398,28.3018215 C7.91587308,29.2678924 6.48141339,30.3942806 4.75309999,29.6555097 C3.02478658,28.9167388 2.82199993,27.3583028 3.14465684,26.285415 C3.46731374,25.2125272 7.46292757,11.7569683 7.81886134,10.4493651 C8.17479512,9.14176184 9.47486038,8.23440038 11.1542086,8.39312429 Z M12.1093099,13.9912327 L13.1524286,16.0748071 L13.2338263,16.2656473 L13.4023294,16.3920476 L16.1711719,18.4690568 C16.5209152,18.731412 17.0239021,18.6693328 17.2946245,18.3303991 C17.565347,17.9914654 17.5012879,17.5040245 17.1515446,17.2416693 L14.4659038,15.169114 C14.4659038,15.169114 13.3420038,11.7855802 12.8875458,11.2162644 C12.5091321,10.742212 11.6819204,10.6410462 11.132825,10.4721234 C10.5837297,10.3032006 9.84107653,10.4721234 9.66619095,11.2162644 L7.83287371,17.7272844 L5.05065641,26.8971858 C4.9337054,27.3105393 5.18467412,27.7375058 5.61121074,27.8508422 C6.03774735,27.9641786 6.47833112,27.7209666 6.59528213,27.3076131 L9.66619095,20.0015799 L11.654842,22.4928178 L11.9674337,27.1992066 C11.9730855,27.6277813 12.3361761,27.9707697 12.7784193,27.9652926 C13.2206626,27.9598155 13.5745899,27.607947 13.5689381,27.1793723 L13.4973807,21.7531592 L13.4937576,21.4784164 L13.3125534,21.2670889 L10.7702478,17.7272844 L12.1093099,13.9912327 Z" id="Path-25"></path>
                            <path d="M16.5687163,4.01626649 C16.5687163,1.79814376 14.7705725,0 12.5524498,0 C10.334327,0 8.53618328,1.79814376 8.53618328,4.01626649 C8.53618328,6.23438922 10.334327,8.03253298 12.5524498,8.03253298 C14.7705725,8.03253298 16.5687163,6.23438922 16.5687163,4.01626649 Z M14.560583,4.01626649 C14.560583,2.90720512 13.6615111,2.00813324 12.5524498,2.00813324 C11.4433884,2.00813324 10.5443165,2.90720512 10.5443165,4.01626649 C10.5443165,5.12532785 11.4433884,6.02439973 12.5524498,6.02439973 C13.6615111,6.02439973 14.560583,5.12532785 14.560583,4.01626649 Z" id="Oval-3"></path>
                            <path d="M1.33486949,8.86515297 L-0.297239715,14.9562675 C-0.712903882,16.5075472 0.199436415,18.0972874 1.7525764,18.51345 C3.30224792,18.9286832 4.88990302,18.011988 5.30636049,16.4577476 L6.9384697,10.3666331 C7.35413386,8.81535333 6.44179357,7.2256132 4.88865358,6.80945059 C3.33898206,6.39421736 1.75132696,7.31091254 1.33486949,8.86515297 Z M4.99876193,9.84688999 L3.36665273,15.9380045 C3.23723464,16.4209993 2.75069456,16.7019224 2.27231953,16.5737422 C1.79271239,16.4452319 1.5132475,15.9582682 1.64246805,15.4760106 L3.27457726,9.38489609 C3.40399534,8.90190122 3.89053542,8.62097815 4.36891045,8.74915836 C4.84851759,8.8776687 5.12798248,9.36463234 4.99876193,9.84688999 Z" id="Rectangle-1"></path>
                            <path d="M17.2241166,28.7726862 C17.1222863,29.317787 17.481628,29.8422283 18.0267288,29.9440586 C18.5718296,30.0458889 19.0962709,29.6865472 19.1981012,29.1414464 L22.1812324,13.1726535 C22.2830627,12.6275527 21.923721,12.1031114 21.3786202,12.0012811 C20.8335194,11.8994508 20.3090781,12.2587925 20.2072478,12.8038933 L17.2241166,28.7726862 Z" id="Path-32" opacity="0.9"></path>
                        </g>
                    </g>
                </g>
            </g>
        </g>
    </g>
</svg>