<?xml version="1.0" encoding="UTF-8" standalone="no"?>
<svg width="18px" height="18px" viewBox="0 0 18 18" version="1.1" xmlns="http://www.w3.org/2000/svg" xmlns:xlink="http://www.w3.org/1999/xlink" xmlns:sketch="http://www.bohemiancoding.com/sketch/ns">
    <!-- Generator: Sketch 3.1 (8751) - http://www.bohemiancoding.com/sketch -->
    <title>ico_close</title>
    <desc>Created with Sketch.</desc>
    <defs></defs>
    <g id="Page-1" stroke="none" stroke-width="1" fill="none" fill-rule="evenodd" sketch:type="MSPage">
        <g id="2_inner" sketch:type="MSArtboardGroup" transform="translate(-1140.000000, -977.000000)" fill="#D8D8D8">
            <g id="Rectangle-3-+-Wambrella-report" sketch:type="MSLayerGroup" transform="translate(0.000000, 870.000000)">
                <g id="Group-3" transform="translate(901.000000, 99.000000)" sketch:type="MSShapeGroup">
                    <g id="ico_close" transform="translate(239.000000, 8.000000)">
                        <path d="M9,18 C13.9705627,18 18,13.9705627 18,9 C18,4.02943725 13.9705627,0 9,0 C4.02943725,0 0,4.02943725 0,9 C0,13.9705627 4.02943725,18 9,18 Z M6.01689327,12.8401819 L5.15981805,11.9831067 L8.14292479,9 L5.15981805,6.01689327 L6.01689327,5.15981805 L9,8.14292479 L11.9831067,5.15981805 L12.8401819,6.01689327 L9.85707521,9 L12.8401819,11.9831067 L11.9831067,12.8401819 L9,9.85707521 L6.01689327,12.8401819 Z" id="Oval-20"></path>
                    </g>
                </g>
            </g>
        </g>
    </g>
</svg>