<?xml version="1.0" encoding="UTF-8" standalone="no"?>
<svg width="30px" height="30px" viewBox="0 0 30 30" version="1.1" xmlns="http://www.w3.org/2000/svg" xmlns:xlink="http://www.w3.org/1999/xlink" xmlns:sketch="http://www.bohemiancoding.com/sketch/ns">
    <!-- Generator: Sketch 3.0.4 (8054) - http://www.bohemiancoding.com/sketch -->
    <title>ico_beach</title>
    <desc>Created with Sketch.</desc>
    <defs></defs>
    <g id="Page-1" stroke="none" stroke-width="1" fill="none" fill-rule="evenodd" sketch:type="MSPage">
        <g id="main" sketch:type="MSArtboardGroup" transform="translate(-1349.000000, -1069.000000)" fill="#FFFFFF" opacity="0.5">
            <g id="-4" sketch:type="MSLayerGroup" transform="translate(560.000000, 620.000000)">
                <g id="Group" transform="translate(560.000000, 250.000000)" sketch:type="MSShapeGroup">
                    <g id="ico_beach" transform="translate(228.000000, 198.000000)">
                        <path d="M29.995872,25 L17.999872,25 L17.999872,14 L29.783872,14 C30.091872,14 30.381872,13.859 30.571872,13.619 C30.761872,13.378 30.830872,13.063 30.758872,12.765 C30.733872,12.66 28.194872,2.688 17.928872,1.876 C17.864872,1.385 17.460872,1 16.949872,1 C16.453872,1 16.060872,1.365 15.979872,1.836 C5.09687197,2.215 2.43787197,12.658 2.41187197,12.766 C2.33987197,13.064 2.40887197,13.378 2.59887197,13.62 C2.78887197,13.859 3.07987197,14 3.38687197,14 L15.999872,14 L15.999872,25 L6.37987197,25 L2.73987197,21.079 C2.36487197,20.674 1.72887197,20.649 1.32187197,21.023 C0.914871974,21.398 0.890871974,22.031 1.26687197,22.436 L5.20487197,26.678 C5.39487197,26.884 5.66187197,27 5.94187197,27 L8.99987197,27 L8.99987197,30 C8.99987197,30.553 9.44587197,31 9.99987197,31 C10.553872,31 10.999872,30.553 10.999872,30 L10.999872,27 L15.999872,27 L15.999872,30 C15.999872,30.553 16.445872,31 16.999872,31 C17.553872,31 17.999872,30.553 17.999872,30 L17.999872,27 L23.999872,27 L23.999872,30 C23.999872,30.553 24.445872,31 24.999872,31 C25.553872,31 25.999872,30.553 25.999872,30 L25.999872,27 L29.995872,27 C30.550872,27 30.999872,26.553 30.999872,26 C30.999872,25.447 30.550872,25 29.995872,25 L29.995872,25 Z M28.398872,12 L23.092872,12 C22.827872,10.536 21.895872,6.41 19.604872,4.146 C25.135872,5.369 27.536872,9.802 28.398872,12 L28.398872,12 Z M13.624872,4.132 C11.422872,6.385 10.678872,10.506 10.478872,12 L4.77187197,12 C5.63687197,9.794 8.04987197,5.336 13.624872,4.132 L13.624872,4.132 Z M11.770872,12 C12.053872,10.052 13.169872,4.394 16.573872,3.924 C16.624872,3.945 16.684872,3.945 16.739872,3.957 C20.037872,4.576 21.405872,10.048 21.788872,11.999 L11.770872,11.999 L11.770872,12 Z" id="Shape"></path>
                    </g>
                </g>
            </g>
        </g>
    </g>
</svg>