<?xml version="1.0" encoding="UTF-8" standalone="no"?>
<svg width="160px" height="40px" viewBox="0 0 160 40" version="1.1" xmlns="http://www.w3.org/2000/svg" xmlns:xlink="http://www.w3.org/1999/xlink" xmlns:sketch="http://www.bohemiancoding.com/sketch/ns">
    <!-- Generator: Sketch 3.0.4 (8054) - http://www.bohemiancoding.com/sketch -->
    <title>logo</title>
    <desc>Created with Sketch.</desc>
    <defs></defs>
    <g id="Page-1" stroke="none" stroke-width="1" fill="none" fill-rule="evenodd" sketch:type="MSPage">
        <g id="main" sketch:type="MSArtboardGroup" transform="translate(-620.000000, -40.000000)" fill="#17C3E4">
            <g id="header" sketch:type="MSLayerGroup">
                <g id="logo" transform="translate(620.000000, 41.000000)" sketch:type="MSShapeGroup">
                    <path d="M20.5548854,23.4572127 C19.1181665,23.4572127 17.9493366,24.5693325 17.9493366,25.9364303 C17.9493366,27.5290416 19.3139686,28.4372934 20.6620989,28.5112885 L20.8443908,28.5213007 L20.8443908,32.4205379 C20.8443908,34.9496259 19.3283474,36.5207824 16.8878166,36.5207824 C14.4103257,36.5207824 12.9312425,35.023621 12.9312425,32.5158924 L12.9312425,25.1735941 C12.9312425,24.4374572 12.3252111,23.8386308 11.5802171,23.8386308 C10.8352232,23.8386308 10.2291918,24.4374572 10.2291918,25.1735941 L10.2291918,32.5158924 C10.2291918,35.023621 8.82219542,36.5207824 6.46562123,36.5207824 C4.10904704,36.5207824 2.70205066,35.023621 2.70205066,32.5158924 L2.70205066,25.1735941 C2.70205066,24.4374572 2.0960193,23.8386308 1.35102533,23.8386308 C0.606031363,23.8386308 0,24.4374572 0,25.1735941 L0,32.7066015 C0,34.5899487 0.617418577,36.1647286 1.78547648,37.2607335 C2.93172497,38.3361418 4.55006031,38.9046455 6.46562123,38.9046455 C8.81466828,38.9046455 10.6133655,37.767066 11.4005308,35.7836919 L11.5879373,35.311401 L11.7618335,35.7886504 C12.4620507,37.7106161 14.3522316,38.9046455 16.694813,38.9046455 C18.6103739,38.9046455 20.2287093,38.3361418 21.3749578,37.2607335 C22.5430157,36.1647286 23.1604343,34.5899487 23.1604343,32.7066015 L23.1604343,26.1271394 C23.1604343,24.629978 22.0159228,23.4572127 20.5548854,23.4572127" id="Fill-1"></path>
                    <path d="M33.0036188,23.4572127 C28.8368637,23.4572127 25.5729795,26.8498313 25.5729795,31.1809291 C25.5729795,35.5120269 28.8368637,38.9046455 33.0036188,38.9046455 C35.3121351,38.9046455 37.3628951,37.7556235 38.6300603,35.7522249 L38.8689988,35.3744303 L38.9807479,35.8060049 C39.4605549,37.6594108 40.9754403,38.9046455 42.7503016,38.9046455 C43.3271894,38.9046455 43.9294572,38.8086235 44.4917732,38.6268778 C45.2072376,38.3957384 45.7418577,37.4502029 45.7418577,36.7591687 C45.7418577,36.1217237 45.4586248,36.1217237 45.3520869,36.1217237 C45.2486369,36.1217237 45.1242461,36.1492812 44.9826779,36.203824 C44.5955127,36.3529584 44.1809409,36.4254279 43.7153197,36.4254279 C42.3669964,36.4254279 41.495778,35.5270929 41.495778,34.1369193 L41.495778,25.1735941 C41.495778,24.4374572 40.8897467,23.8386308 40.1447527,23.8386308 C39.3997587,23.8386308 38.7937274,24.3092054 38.7937274,24.8875306 L38.7937274,26.7453227 L38.4413028,26.2346039 C37.2054041,24.4435599 35.2743064,23.4572127 33.0036188,23.4572127 L33.0036188,23.4572127 Z M33.5826297,36.5207824 C30.6560193,36.5207824 28.2750302,34.1253814 28.2750302,31.1809291 C28.2750302,28.1839364 30.6560193,25.7457213 33.5826297,25.7457213 C35.6421713,25.7457213 37.5230881,26.9409902 38.3808926,28.7927751 C38.5171532,28.9758557 38.7937274,29.5830733 38.7937274,29.7506112 L38.7937274,32.5158924 C38.7937274,32.6977335 38.4840531,33.397445 38.3847527,33.5604059 C37.5358263,35.3590782 35.6522075,36.5207824 33.5826297,36.5207824 L33.5826297,36.5207824 Z" id="Fill-2"></path>
                    <path d="M65.4282268,23.4572127 C63.3745718,23.4572127 61.5118938,24.6479046 60.6829433,26.4907262 L60.5093366,26.8767213 L60.3311942,26.4926333 C59.4363329,24.5636112 57.6360917,23.4572127 55.3920386,23.4572127 C53.626538,23.4572127 52.0295296,24.384154 51.12,25.936621 L50.7599517,26.5511809 L50.7599517,24.7444988 C50.7599517,24.2450318 50.1539204,23.8386308 49.4089264,23.8386308 C48.6639324,23.8386308 48.0579011,24.4374572 48.0579011,25.1735941 L48.0579011,37.1882641 C48.0579011,37.924401 48.6639324,38.5232274 49.4089264,38.5232274 C50.1539204,38.5232274 50.7599517,37.924401 50.7599517,37.1882641 L50.7599517,30.3227384 C50.7599517,27.7988949 52.5349095,25.7457213 54.7165259,25.7457213 C56.8855971,25.7457213 58.2870929,27.2055037 58.2870929,29.4645477 L58.2870929,37.1882641 C58.2870929,37.924401 58.8931242,38.5232274 59.6381182,38.5232274 C60.3831122,38.5232274 60.9891435,37.924401 60.9891435,37.1882641 L60.9891435,30.3227384 C60.9891435,27.7988949 62.7641013,25.7457213 64.9457177,25.7457213 C67.0886369,25.7457213 68.4197829,27.1706993 68.4197829,29.4645477 L68.4197829,34.4229829 C68.4197829,36.5955403 69.8064174,38.9046455 72.3763571,38.9046455 C73.0083474,38.9046455 73.5935344,38.8326528 74.1158022,38.6907653 C74.8324246,38.4960513 75.3679131,37.5356406 75.3679131,36.806846 C75.3679131,36.1289707 75.0912425,36.1289707 75.0003378,36.1289707 C74.9070205,36.1289707 74.7943064,36.1550978 74.6652835,36.2068753 C74.2985766,36.353912 73.8971291,36.4254279 73.437877,36.4254279 C72.0525935,36.4254279 71.1218335,35.5057335 71.1218335,34.1369193 L71.1218335,29.1784841 C71.1218335,27.4919487 70.585959,26.0583888 69.5720145,25.0330416 C68.5527624,24.0021638 67.119807,23.4572127 65.4282268,23.4572127" id="Fill-3"></path>
                    <path d="M102.581423,23.4572127 C100.882606,23.4572127 99.2867551,24.5247066 98.3122799,26.31289 L97.9493366,26.8899756 L97.9493366,24.9352078 C97.9493366,24.3305648 97.3433052,23.8386308 96.5983112,23.8386308 C95.8533172,23.8386308 95.2472859,24.4374572 95.2472859,25.1735941 L95.2472859,37.1882641 C95.2472859,37.924401 95.8533172,38.5232274 96.5983112,38.5232274 C97.3433052,38.5232274 97.9493366,37.924401 97.9493366,37.1882641 L97.9493366,30.3227384 C97.9493366,30.156154 98.0804825,29.6251247 98.1194692,29.5101271 C98.5264174,28.1526601 99.385573,27.0993741 100.476526,26.620313 L100.673486,26.5339218 L100.738818,26.7368362 C101.011146,27.5829169 101.772256,28.1295844 102.677925,28.1295844 C103.954934,28.1295844 104.993969,27.1029022 104.993969,25.8410758 C104.993969,24.5266137 103.911701,23.4572127 102.581423,23.4572127" id="Fill-4"></path>
                    <path d="M114.065139,23.4572127 C112.070157,23.4572127 110.181616,24.2647702 108.747214,25.7309413 C107.322557,27.1871956 106.537998,29.0888509 106.537998,31.0855746 C106.537998,33.2616601 107.394451,35.2572396 108.949481,36.7046259 C110.473824,38.1233105 112.530567,38.9046455 114.740651,38.9046455 C115.842895,38.9046455 116.963667,38.7413985 117.981954,38.4326406 C118.671363,38.2235281 119.276236,37.3301516 119.276236,36.5207824 C119.276236,36.0460122 119.092304,35.8053374 118.729554,35.8053374 C118.577756,35.8053374 118.401255,35.8454817 118.20468,35.9247213 C117.224029,36.3201565 116.058577,36.5207824 114.740651,36.5207824 C113.581279,36.5207824 112.538866,36.2212738 111.642075,35.6305526 L111.44608,35.5014425 L119.495489,27.5478264 C119.773703,27.2729193 119.936309,26.8727164 119.930326,26.4774719 C119.925211,26.1332421 119.794355,25.8243888 119.561882,25.607934 C118.050953,24.200978 116.15006,23.4572127 114.065139,23.4572127 L114.065139,23.4572127 Z M109.985042,34.1495061 L109.852835,33.9586064 C109.270929,33.118533 108.950543,32.0982396 108.950543,31.0855746 C108.950543,28.0912518 111.197105,25.7457213 114.065139,25.7457213 C115.063643,25.7457213 116.156043,26.1543154 116.987214,26.8388655 L117.148468,26.9715037 L109.985042,34.1495061 L109.985042,34.1495061 Z" id="Fill-5"></path>
                    <path d="M124.294331,8.67726161 C123.549337,8.67726161 122.943305,9.27608802 122.943305,10.0122249 L122.943305,34.4229829 C122.943305,35.6135795 123.315416,36.72322 123.991218,37.5474645 C124.719228,38.4353105 125.72497,38.9046455 126.899879,38.9046455 C127.476864,38.9046455 128.079035,38.8086235 128.641351,38.6268778 C129.356815,38.3957384 129.891435,37.4502029 129.891435,36.7591687 C129.891435,36.1217237 129.608203,36.1217237 129.501665,36.1217237 C129.398215,36.1217237 129.273824,36.1492812 129.132256,36.203824 C128.74509,36.3529584 128.330519,36.4254279 127.864897,36.4254279 C126.516574,36.4254279 125.645356,35.5270929 125.645356,34.1369193 L125.645356,10.0122249 C125.645356,9.27608802 125.039324,8.67726161 124.294331,8.67726161" id="Fill-6"></path>
                    <path d="M133.365501,8.67726161 C132.620507,8.67726161 132.014475,9.27608802 132.014475,10.0122249 L132.014475,34.4229829 C132.014475,35.6135795 132.386586,36.72322 133.062388,37.5474645 C133.790398,38.4353105 134.79614,38.9046455 135.971049,38.9046455 C136.548034,38.9046455 137.150205,38.8086235 137.712521,38.6268778 C138.427986,38.3957384 138.962606,37.4502029 138.962606,36.7591687 C138.962606,36.1217237 138.679373,36.1217237 138.572835,36.1217237 C138.469385,36.1217237 138.344994,36.1492812 138.203426,36.203824 C137.816261,36.3529584 137.401689,36.4254279 136.936068,36.4254279 C135.587744,36.4254279 134.716526,35.5270929 134.716526,34.1369193 L134.716526,10.0122249 C134.716526,9.27608802 134.110495,8.67726161 133.365501,8.67726161" id="Fill-7"></path>
                    <path d="M147.261761,23.4572127 C143.095006,23.4572127 139.831122,26.8498313 139.831122,31.1809291 C139.831122,35.5120269 143.095006,38.9046455 147.261761,38.9046455 C149.570374,38.9046455 151.621134,37.7556235 152.888203,35.7522249 L153.127141,35.3744303 L153.23889,35.8060049 C153.718601,37.6594108 155.233486,38.9046455 157.008444,38.9046455 C157.585428,38.9046455 158.1876,38.8086235 158.749916,38.6268778 C159.46538,38.3957384 160,37.4502029 160,36.7591687 C160,36.1217237 159.716767,36.1217237 159.610229,36.1217237 C159.506779,36.1217237 159.382388,36.1492812 159.24082,36.203824 C158.853655,36.3529584 158.439083,36.4254279 157.973462,36.4254279 C156.625139,36.4254279 155.75392,35.5270929 155.75392,34.1369193 L155.75392,25.1735941 C155.75392,24.4374572 155.147889,23.8386308 154.402895,23.8386308 C153.657901,23.8386308 153.05187,24.3092054 153.05187,24.8875306 L153.05187,26.7453227 L152.699445,26.2346039 C151.463546,24.4435599 149.532449,23.4572127 147.261761,23.4572127 L147.261761,23.4572127 Z M147.840772,36.5207824 C144.914162,36.5207824 142.533172,34.1253814 142.533172,31.1809291 C142.533172,28.1839364 144.914162,25.7457213 147.840772,25.7457213 C149.90041,25.7457213 151.781134,26.9409902 152.639035,28.7927751 C152.775296,28.9758557 153.05187,29.5830733 153.05187,29.7506112 L153.05187,32.5158924 C153.05187,32.6977335 152.742195,33.397445 152.642895,33.5604059 C151.793969,35.3590782 149.91035,36.5207824 147.840772,36.5207824 L147.840772,36.5207824 Z" id="Fill-8"></path>
                    <path d="M97.6832811,17.5669731 C97.2684198,13.3138753 95.01462,9.27599267 91.3371291,6.19537408 C87.9688299,3.37383374 83.6190109,1.5304401 79.4026538,1.13424205 L79.2279855,1.09657702 L79.2279855,0.572127139 C79.2279855,0.282154034 78.6731001,-0.041002445 77.8769602,-0.041002445 C77.0808203,-0.041002445 76.5259349,0.277672372 76.5259349,0.563640587 L76.5259349,1.09838875 L76.34924,1.1131687 C72.10731,1.46807824 67.7163812,3.29583374 64.3025332,6.12776773 C60.5773703,9.21773105 58.2956815,13.2799291 57.8776357,17.5658289 C57.8385525,17.9649829 57.9063932,18.0492763 57.9087093,18.0522323 C57.9321592,18.0522323 58.0662002,18.0363081 58.4094572,17.7224963 C59.3941616,16.8220636 60.7564777,16.3056235 62.1471653,16.3056235 C63.9117973,16.3056235 65.3638601,16.9599462 66.4628227,18.2504743 C66.6974186,18.5261443 66.9333655,18.6658386 67.1639083,18.6658386 C67.3949337,18.6658386 67.6303016,18.5254768 67.8638359,18.2487579 C68.9513148,16.9593741 70.372111,16.3056235 72.0868516,16.3056235 C73.9049457,16.3056235 75.6303016,16.969291 76.4822195,17.9964499 L76.5259349,18.0491809 L76.5259349,31.1809291 C76.5259349,33.2262836 77.3439807,35.1609315 78.82924,36.6287237 C80.3146924,38.0963252 82.2726176,38.9046455 84.3425814,38.9046455 C88.6318938,38.9046455 92.2557298,35.28022 92.2557298,30.99022 C92.2557298,29.0613888 91.6617612,27.1727971 90.6259107,25.8085599 C89.4582388,24.2702054 87.8193486,23.4572127 85.8866104,23.4572127 C84.3696019,23.4572127 83.0880579,24.636176 83.0880579,26.0317848 C83.0880579,27.3525403 84.2154885,28.5110024 85.5006031,28.5110024 C86.1879855,28.5110024 87.0360434,27.9497457 87.3544994,27.2814059 L87.5407479,26.9135281 L87.7164777,27.0087873 C88.6084439,27.4921394 89.6501809,28.8499878 89.6501809,31.0855746 C89.6501809,34.0264034 87.4036188,36.3300733 84.535585,36.3300733 C81.7081785,36.3300733 79.2279855,33.9239927 79.2279855,31.1809291 L79.2279855,18.0388826 L79.2838601,17.9831956 C80.2891194,16.97978 81.9729795,16.3056235 83.4740651,16.3056235 C85.1888058,16.3056235 86.6096019,16.9594694 87.6970808,18.2487579 C87.9306152,18.5254768 88.1659831,18.6658386 88.3970084,18.6658386 C88.6275513,18.6658386 88.8634982,18.5261443 89.0980941,18.2505697 C90.1970567,16.9600416 91.6491194,16.3057188 93.4137515,16.3057188 C94.8044391,16.3057188 96.1667551,16.8223496 97.1514596,17.7227824 C97.494813,18.0365941 97.628854,18.0528044 97.6486369,18.0564279 C97.6494089,18.0557604 97.7238118,17.9810978 97.6832811,17.5669731 L97.6832811,17.5669731 Z M93.895971,13.8264059 L93.5102533,13.8264059 C91.6921592,13.8264059 89.9601448,14.3518093 88.6331484,15.3059267 L88.4047286,15.4701271 L88.1771773,15.304687 C86.8900362,14.368401 85.6445838,13.8264059 83.0880579,13.8264059 C80.2982871,13.8264059 78.2466586,15.3880269 78.0219059,15.5661491 L77.7804584,15.7574303 L77.5390109,15.5660538 C77.0237877,15.1579364 75.1360193,13.8264059 72.4728589,13.8264059 C69.8889264,13.8264059 68.7316767,14.3242518 67.3837394,15.304687 L67.1560917,15.4702225 L66.9277684,15.3058313 C65.6008685,14.3518093 63.868854,13.8264059 62.0508565,13.8264059 L61.6646562,13.8252616 L61.6646562,13.4444156 C61.6646562,13.1991638 63.0064174,10.6954401 65.520386,8.36783619 C67.9049457,6.15999756 71.9843667,3.52811736 77.8769602,3.52811736 C83.7706152,3.52811736 87.7982147,6.16056968 90.1390591,8.36898044 C92.5889505,10.680088 93.8965501,13.1952543 93.8965501,13.4444156 L93.895971,13.8264059 L93.895971,13.8264059 Z" id="Fill-9"></path>
                </g>
            </g>
        </g>
    </g>
</svg>