<?xml version="1.0" encoding="UTF-8" standalone="no"?>
<svg width="128px" height="42px" viewBox="0 0 128 42" version="1.1" xmlns="http://www.w3.org/2000/svg" xmlns:xlink="http://www.w3.org/1999/xlink" xmlns:sketch="http://www.bohemiancoding.com/sketch/ns">
    <!-- Generator: Sketch 3.3.2 (12043) - http://www.bohemiancoding.com/sketch -->
    <title>btn_googleplay</title>
    <desc>Created with Sketch.</desc>
    <defs>
        <path id="path-1" d="M18.211,10.1615 L12.44525,6.83275 C12.44525,6.83275 1.94125,0.7675 1.32375,0.411 C0.70625,0.0545 0.091,0.2705 0.091,1.0155 L0.091,13.9655 L0.091,27.17825 C0.091,27.73675 0.53075,27.9775 1.06725,27.668 C1.6035,27.358 12.44525,21.09825 12.44525,21.09825 L18.21075,17.76975 C18.21075,17.76975 23.10275,14.9455 23.753,14.57025 C24.40325,14.1945 24.34075,13.6795 23.792,13.384 C23.2435,13.08825 18.211,10.1615 18.211,10.1615 L18.211,10.1615 Z"></path>
        <linearGradient x1="49.9992999%" y1="-8.82589164e-05%" x2="49.9992999%" y2="99.9997352%" id="linearGradient-3">
            <stop stop-color="#257CB0" offset="0%"></stop>
            <stop stop-color="#4A93B5" offset="28.63%"></stop>
            <stop stop-color="#78BCBB" offset="76.7%"></stop>
            <stop stop-color="#89CFBD" offset="100%"></stop>
        </linearGradient>
        <path id="path-4" d="M18.211,10.1615 L12.44525,6.83275 C12.44525,6.83275 1.94125,0.7675 1.32375,0.411 C0.70625,0.0545 0.091,0.2705 0.091,1.0155 L0.091,13.9655 L0.091,27.17825 C0.091,27.73675 0.53075,27.9775 1.06725,27.668 C1.6035,27.358 12.44525,21.09825 12.44525,21.09825 L18.21075,17.76975 C18.21075,17.76975 23.10275,14.9455 23.753,14.57025 C24.40325,14.1945 24.34075,13.6795 23.792,13.384 C23.2435,13.08825 18.211,10.1615 18.211,10.1615 L18.211,10.1615 Z"></path>
        <linearGradient x1="-0.000413912995%" y1="50.0001752%" x2="100.000276%" y2="50.0001752%" id="linearGradient-6">
            <stop stop-color="#52C1AD" offset="0%"></stop>
            <stop stop-color="#DEE89A" offset="100%"></stop>
        </linearGradient>
        <path id="path-7" d="M18.211,10.1615 L12.44525,6.83275 C12.44525,6.83275 1.94125,0.7675 1.32375,0.411 C0.70625,0.0545 0.091,0.2705 0.091,1.0155 L0.091,13.9655 L0.091,27.17825 C0.091,27.73675 0.53075,27.9775 1.06725,27.668 C1.6035,27.358 12.44525,21.09825 12.44525,21.09825 L18.21075,17.76975 C18.21075,17.76975 23.10275,14.9455 23.753,14.57025 C24.40325,14.1945 24.34075,13.6795 23.792,13.384 C23.2435,13.08825 18.211,10.1615 18.211,10.1615 L18.211,10.1615 Z"></path>
        <linearGradient x1="50%" y1="0.000525734714%" x2="50%" y2="99.9996495%" id="linearGradient-9">
            <stop stop-color="#EC413D" offset="0%"></stop>
            <stop stop-color="#DA4452" offset="16.68%"></stop>
            <stop stop-color="#B0487A" offset="57.48%"></stop>
            <stop stop-color="#954A92" offset="86.19%"></stop>
            <stop stop-color="#8A4A9D" offset="100%"></stop>
        </linearGradient>
        <path id="path-10" d="M18.211,10.1615 L12.44525,6.83275 C12.44525,6.83275 1.94125,0.7675 1.32375,0.411 C0.70625,0.0545 0.091,0.2705 0.091,1.0155 L0.091,13.9655 L0.091,27.17825 C0.091,27.73675 0.53075,27.9775 1.06725,27.668 C1.6035,27.358 12.44525,21.09825 12.44525,21.09825 L18.21075,17.76975 C18.21075,17.76975 23.10275,14.9455 23.753,14.57025 C24.40325,14.1945 24.34075,13.6795 23.792,13.384 C23.2435,13.08825 18.211,10.1615 18.211,10.1615 L18.211,10.1615 Z"></path>
        <linearGradient x1="50.0002398%" y1="0.00164300736%" x2="50.0002398%" y2="100.000329%" id="linearGradient-12">
            <stop stop-color="#F58879" offset="0%"></stop>
            <stop stop-color="#F69079" offset="11.94%"></stop>
            <stop stop-color="#FCB877" offset="71.28%"></stop>
            <stop stop-color="#FEC874" offset="100%"></stop>
        </linearGradient>
    </defs>
    <g id="ui-kit" stroke="none" stroke-width="1" fill="none" fill-rule="evenodd" sketch:type="MSPage">
        <g id="ui_webkit" sketch:type="MSArtboardGroup" transform="translate(-704.000000, -712.000000)">
            <g id="googleplay" sketch:type="MSLayerGroup" transform="translate(704.000000, 712.000000)">
                <path d="M128,36.3237205 C128,39.4580751 125.467178,42 122.343005,42 L5.65824666,42 C2.53382341,42.000251 0,39.4583261 0,36.3237205 L0,5.67577744 C0,2.54167389 2.53382341,0 5.65824666,0 L122.342754,0 C125.466927,0 127.99975,2.54167389 127.99975,5.67577744 L127.99975,36.3237205 L128,36.3237205 Z" id="Shape" opacity="0.6" fill="#000000" sketch:type="MSShapeGroup"></path>
                <g id="Group" transform="translate(9.000000, 8.000000)">
                    <g id="PLAY_2_" transform="translate(0.500000, 0.250000)">
                        <g id="Clipped">
                            <mask id="mask-2" sketch:name="SVGID_1_" fill="white">
                                <use xlink:href="#path-1"></use>
                            </mask>
                            <g id="SVGID_1_"></g>
                            <path d="M0.09125,-0.19725 L0.09125,13.9655 L0.09125,28.1285 L14.37475,13.96575 L0.09125,-0.19725 Z" id="Shape" fill="url(#linearGradient-3)" sketch:type="MSShapeGroup" mask="url(#mask-2)"></path>
                        </g>
                        <g id="Clipped">
                            <mask id="mask-5" sketch:name="SVGID_1_" fill="white">
                                <use xlink:href="#path-4"></use>
                            </mask>
                            <g id="SVGID_1_"></g>
                            <path d="M18.211,10.1615 L12.44525,6.83275 L0.09125,-0.30025 L0.09125,-0.19725 L14.37475,13.96575 L18.211,10.1615 Z" id="Shape" fill="url(#linearGradient-6)" sketch:type="MSShapeGroup" mask="url(#mask-5)"></path>
                        </g>
                        <g id="Clipped">
                            <mask id="mask-8" sketch:name="SVGID_1_" fill="white">
                                <use xlink:href="#path-7"></use>
                            </mask>
                            <g id="SVGID_1_"></g>
                            <path d="M0.09125,28.1285 L0.09125,28.2315 L12.44525,21.09825 L18.21075,17.7695 L14.37475,13.96575 L0.09125,28.1285 Z" id="Shape" fill="url(#linearGradient-9)" sketch:type="MSShapeGroup" mask="url(#mask-8)"></path>
                        </g>
                        <g id="Clipped">
                            <mask id="mask-11" sketch:name="SVGID_1_" fill="white">
                                <use xlink:href="#path-10"></use>
                            </mask>
                            <g id="SVGID_1_"></g>
                            <path d="M18.211,10.1615 L14.37475,13.96575 L18.21075,17.7695 L24.8,13.9655 L18.211,10.1615 Z" id="Shape" fill="url(#linearGradient-12)" sketch:type="MSShapeGroup" mask="url(#mask-11)"></path>
                        </g>
                    </g>
                    <path d="M90.5145,19.75275 C89.978,19.75275 89.4885,19.65375 89.04525,19.456 C88.602,19.258 88.2295,18.9535 87.92875,18.543 L87.83875,18.543 C87.89875,19.024 87.92875,19.48 87.92875,19.91075 L87.92875,23.3005 L86.68175,23.3005 L86.68175,11.36475 L87.69625,11.36475 L87.86875,12.49225 L87.92875,12.49225 C88.24975,12.041 88.62325,11.71575 89.049,11.51525 C89.47475,11.31475 89.9635,11.2145 90.51425,11.2145 C91.60675,11.2145 92.45,11.588 93.0435,12.3345 C93.63725,13.081 93.93425,14.1285 93.93425,15.476 C93.93425,16.829 93.63225,17.87975 93.029,18.6295 C92.42525,19.3785 91.58725,19.75275 90.5145,19.75275 L90.5145,19.75275 Z M90.334,12.27425 C89.49225,12.27425 88.8835,12.5075 88.50775,12.97325 C88.132,13.43925 87.939,14.181 87.92875,15.19825 L87.92875,15.476 C87.92875,16.63375 88.12175,17.46175 88.50775,17.9605 C88.89375,18.45925 89.51275,18.708 90.364,18.708 C91.076,18.708 91.6335,18.42025 92.037,17.844 C92.44,17.268 92.64175,16.47375 92.64175,15.461 C92.64175,14.43425 92.44,13.64575 92.037,13.09725 C91.63375,12.54825 91.06575,12.27425 90.334,12.27425 L90.334,12.27425 Z" id="Shape" fill="#F9F9F9" sketch:type="MSShapeGroup"></path>
                    <path d="M96.82325,19.60225 L95.57575,19.60225 L95.57575,7.90725 L96.82325,7.90725 L96.82325,19.60225 L96.82325,19.60225 Z" id="Shape" fill="#F9F9F9" sketch:type="MSShapeGroup"></path>
                    <path d="M103.9965,19.60225 L103.74825,18.42975 L103.68825,18.42975 C103.27725,18.94625 102.86775,19.296 102.45925,19.47825 C102.051,19.6615 101.541,19.75275 100.93,19.75275 C100.11325,19.75275 99.47325,19.54225 99.0095,19.1215 C98.54575,18.70075 98.31425,18.10225 98.31425,17.32525 C98.31425,15.662 99.64475,14.79 102.30525,14.7095 L103.70375,14.66425 L103.70375,14.15325 C103.70375,13.50675 103.5645,13.02925 103.28625,12.7215 C103.0085,12.413 102.563,12.259 101.95225,12.259 C101.2655,12.259 100.48875,12.4695 99.62225,12.89025 L99.23875,11.93575 C99.645,11.71525 100.08925,11.5425 100.57325,11.41725 C101.05675,11.292 101.54125,11.22925 102.0275,11.22925 C103.0095,11.22925 103.73725,11.447 104.211,11.883 C104.68425,12.319 104.921,13.018 104.921,13.98025 L104.921,19.602 L103.9965,19.602 L103.9965,19.60225 Z M101.178,18.72325 C101.95425,18.72325 102.56425,18.51025 103.008,18.0845 C103.451,17.65875 103.67325,17.06225 103.67325,16.29525 L103.67325,15.55125 L102.425,15.6035 C101.433,15.63925 100.71825,15.79275 100.27925,16.0665 C99.841,16.3395 99.62175,16.76425 99.62175,17.3405 C99.62175,17.79125 99.758,18.13475 100.0315,18.36975 C100.30475,18.6055 100.6865,18.72325 101.178,18.72325 L101.178,18.72325 Z" id="Shape" fill="#F9F9F9" sketch:type="MSShapeGroup"></path>
                    <path d="M105.64525,11.36475 L106.98275,11.36475 L108.78675,16.0625 C109.1825,17.135 109.42825,17.909 109.52375,18.38525 L109.58375,18.38525 C109.649,18.12925 109.78575,17.6925 109.99325,17.073 C110.20125,16.454 110.88175,14.55175 112.03375,11.36475 L113.37225,11.36475 L109.83175,20.745 C109.48125,21.672 109.0715,22.32975 108.6025,22.71875 C108.13425,23.10675 107.559,23.3005 106.87825,23.3005 C106.49725,23.3005 106.1215,23.258 105.75025,23.173 L105.75025,22.1735 C106.02575,22.2335 106.33425,22.26375 106.675,22.26375 C107.532,22.26375 108.14275,21.78275 108.509,20.8205 L108.96725,19.64825 L105.64525,11.36475 L105.64525,11.36475 Z" id="Shape" fill="#F9F9F9" sketch:type="MSShapeGroup"></path>
                    <path d="M67.40225,12.13025 C67.79825,12.458 68.62525,13.1465 68.62525,14.45675 C68.62525,15.731 67.9015,16.33525 67.17775,16.903 C66.95375,17.12675 66.69525,17.36875 66.69525,17.74825 C66.69525,18.1265 66.9535,18.3335 67.14375,18.48875 L67.76425,18.97025 C68.52225,19.608 69.21075,20.19425 69.21075,21.3835 C69.21075,23.003 67.64275,24.63925 64.67975,24.63925 C62.181,24.63925 60.9755,23.45075 60.9755,22.175 C60.9755,21.555 61.28425,20.67675 62.30225,20.073 C63.36975,19.41825 64.818,19.333 65.593,19.28 C65.351,18.97025 65.076,18.64275 65.076,18.1095 C65.076,17.817 65.1625,17.6445 65.24825,17.43675 C65.058,17.45425 64.86875,17.4715 64.69625,17.4715 C62.8705,17.4715 61.83675,16.11025 61.83675,14.767 C61.83675,13.97425 62.199,13.095 62.939,12.45825 C63.9215,11.6485 65.093,11.51025 66.02425,11.51025 L69.57275,11.51025 L68.47,12.1305 L67.40225,12.1305 L67.40225,12.13025 Z M66.1785,19.78075 C66.04075,19.76275 65.95425,19.76275 65.78275,19.76275 C65.62775,19.76275 64.696,19.798 63.97325,20.03975 C63.59425,20.1765 62.49125,20.59 62.49125,21.814 C62.49125,23.03675 63.68075,23.91675 65.5245,23.91675 C67.1775,23.91675 68.05725,23.1225 68.05725,22.05525 C68.05725,21.17475 67.4885,20.7115 66.1785,19.78075 L66.1785,19.78075 Z M66.6785,16.5065 C67.07425,16.10975 67.10825,15.559 67.10825,15.2485 C67.10825,14.00825 66.36775,12.0785 64.938,12.0785 C64.4895,12.0785 64.0075,12.30225 63.73175,12.64725 C63.43925,13.009 63.35225,13.47375 63.35225,13.92225 C63.35225,15.0765 64.02425,16.98925 65.50675,16.98925 C65.9375,16.98925 66.40175,16.7825 66.6785,16.5065 L66.6785,16.5065 Z" id="Shape" fill="#F9F9F9" sketch:type="MSShapeGroup"></path>
                    <path d="M56.555,19.505 C53.82025,19.505 52.358,17.37175 52.358,15.44475 C52.358,13.191 54.19825,11.26525 56.814,11.26525 C59.3415,11.26525 60.92425,13.24275 60.92425,15.32475 C60.9245,17.35375 59.35975,19.505 56.555,19.505 L56.555,19.505 Z M58.705,18.11175 C59.1185,17.56075 59.22175,16.873 59.22175,16.2015 C59.22175,14.68725 58.49925,11.79775 56.366,11.79775 C55.7985,11.79775 55.231,12.02175 54.81825,12.38375 C54.14725,12.985 54.02625,13.74225 54.02625,14.48275 C54.02625,16.1845 54.86925,18.98775 56.95125,18.98775 C57.622,18.98775 58.31025,18.6615 58.705,18.11175 L58.705,18.11175 Z" id="Shape" fill="#F9F9F9" sketch:type="MSShapeGroup"></path>
                    <path d="M47.23125,19.505 C44.496,19.505 43.0335,17.37175 43.0335,15.44475 C43.0335,13.191 44.8745,11.26525 47.4895,11.26525 C50.01775,11.26525 51.60025,13.24275 51.60025,15.32475 C51.6005,17.35375 50.0355,19.505 47.23125,19.505 L47.23125,19.505 Z M49.38175,18.11175 C49.7945,17.56075 49.898,16.873 49.898,16.2015 C49.898,14.68725 49.175,11.79775 47.04175,11.79775 C46.4745,11.79775 45.9065,12.02175 45.494,12.38375 C44.823,12.985 44.70275,13.74225 44.70275,14.48275 C44.70275,16.1845 45.54525,18.98775 47.6275,18.98775 C48.2985,18.98775 48.98625,18.6615 49.38175,18.11175 L49.38175,18.11175 Z" id="Shape" fill="#F9F9F9" sketch:type="MSShapeGroup"></path>
                    <path d="M41.7195,19.23525 L39.246,19.806 C38.2425,19.962 37.3435,20.09925 36.39275,20.09925 C31.61875,20.09925 29.8035,16.58825 29.8035,13.83825 C29.8035,10.4835 32.38,7.37125 36.79075,7.37125 C37.725,7.37125 38.6235,7.50925 39.43625,7.73425 C40.73325,8.0975 41.3385,8.54675 41.71925,8.8065 L40.28325,10.17275 L39.67825,10.3105 L40.1105,9.6185 C39.52275,9.04825 38.4495,7.9935 36.4095,7.9935 C33.67675,7.9935 31.61825,10.06975 31.61825,13.096 C31.61825,16.3465 33.97075,19.40775 37.74025,19.40775 C38.84825,19.40775 39.41775,19.18325 39.937,18.97525 L39.937,16.1915 L37.326,16.32975 L38.709,15.58525 L42.37575,15.58525 L41.9265,16.0175 C41.8045,16.12175 41.78775,16.15675 41.75325,16.29375 C41.73525,16.44975 41.719,16.95175 41.719,17.1245 L41.719,19.23525 L41.7195,19.23525 Z" id="Shape" fill="#F9F9F9" sketch:type="MSShapeGroup"></path>
                    <path d="M72.8685,18.73725 C72.2975,18.68525 72.178,18.582 72.178,17.90675 L72.178,17.71625 L72.178,8.11825 C72.1815,8.081 72.18375,8.04275 72.18725,8.00675 C72.257,7.40175 72.42975,7.298 72.9665,6.98625 L70.4925,6.98625 L69.195,7.609 L70.51725,7.609 L70.51725,7.61675 L70.51625,7.6105 L70.51625,17.7165 L70.51625,18.28775 C70.51625,18.633 70.448,18.6855 70.04975,19.20375 L73.11125,19.20375 L73.75125,18.82425 C73.4575,18.7885 73.163,18.77175 72.8685,18.73725 L72.8685,18.73725 Z" id="Shape" fill="#F9F9F9" sketch:type="MSShapeGroup"></path>
                    <path d="M79.906,18.89625 C79.71775,18.9995 79.52875,19.12025 79.3405,19.2055 C78.77275,19.463 78.189,19.532 77.67275,19.532 C77.1245,19.532 76.265,19.4965 75.38825,18.86175 C74.16975,18.00225 73.63725,16.52525 73.63725,15.2375 C73.63725,12.57575 75.80125,11.2705 77.57025,11.2705 C78.18875,11.2705 78.825,11.42475 79.34025,11.75175 C80.19825,12.3175 80.4215,13.056 80.541,13.45125 L76.50575,15.0835 L75.183,15.1865 C75.61175,17.36775 77.08875,18.63775 78.721,18.63775 C79.59675,18.63775 80.2325,18.32925 80.81625,18.03775 L79.906,18.89625 L79.906,18.89625 Z M78.292,13.77725 C78.61775,13.6575 78.7895,13.554 78.7895,13.31375 C78.7895,12.62725 78.017,11.83675 77.08875,11.83675 C76.401,11.83675 75.11375,12.3695 75.11375,14.224 C75.11375,14.516 75.14825,14.825 75.166,15.13525 L78.292,13.77725 L78.292,13.77725 Z" id="Shape" fill="#F9F9F9" sketch:type="MSShapeGroup"></path>
                    <path d="M81.56375,11.388 L81.56375,12.52125 L81.426,12.52125 L81.426,11.388 L81.051,11.388 L81.051,11.2705 L81.9385,11.2705 L81.9385,11.388 L81.56375,11.388 L81.56375,11.388 Z" id="Shape" fill="#F9F9F9" sketch:type="MSShapeGroup"></path>
                    <path d="M83.10875,12.52125 L83.10875,11.3775 L83.1025,11.3775 L82.7535,12.52125 L82.64575,12.52125 L82.29375,11.3775 L82.28925,11.3775 L82.28925,12.52125 L82.16425,12.52125 L82.16425,11.2705 L82.3785,11.2705 L82.697,12.2815 L82.7015,12.2815 L83.01525,11.2705 L83.2325,11.2705 L83.2325,12.52125 L83.10875,12.52125 L83.10875,12.52125 Z" id="Shape" fill="#F9F9F9" sketch:type="MSShapeGroup"></path>
                    <path d="M33.2385,4.00375 L32.379,4.00375 C32.379,3.8855 32.2975,3.55075 32.1345,2.99925 L30.89375,2.99925 C30.7255,3.54175 30.64125,3.8765 30.64125,4.00375 L29.833,4.00375 C29.833,3.934 30.042,3.361 30.46,2.285 C30.878,1.209 31.087,0.61625 31.087,0.50725 L32.10225,0.50725 C32.10225,0.60925 32.2915,1.19325 32.67025,2.2595 C33.049,3.32575 33.2385,3.907 33.2385,4.00375 L33.2385,4.00375 Z M31.99775,2.48625 C31.6915,1.5625 31.5385,1.063 31.5385,0.98775 L31.4955,0.98775 C31.4955,1.0575 31.337,1.557 31.02025,2.48625 L31.99775,2.48625 L31.99775,2.48625 Z" id="Shape" fill="#F9F9FA" sketch:type="MSShapeGroup"></path>
                    <path d="M36.7015,4.00375 L36.03825,4.00375 C36.03825,3.93025 35.792,3.54275 35.29975,2.841 C34.78425,2.1015 34.4905,1.596 34.419,1.32375 L34.376,1.32375 C34.42075,1.71575 34.44325,2.07025 34.44325,2.38725 C34.44325,2.8295 34.45575,3.3685 34.48075,4.004 L33.82,4.004 C33.84675,3.449 33.86025,2.8395 33.86025,2.17525 C33.86025,1.52175 33.84675,0.96575 33.82,0.5075 L34.6175,0.5075 C34.6175,0.6025 34.8385,0.98125 35.28075,1.6435 C35.7515,2.347 36.022,2.82425 36.09175,3.075 L36.132,3.075 C36.089,2.67575 36.0675,2.31775 36.0675,2.00075 C36.0675,1.51575 36.055,1.01775 36.03,0.5075 L36.7015,0.5075 C36.67625,0.9515 36.664,1.5075 36.664,2.17525 C36.66375,2.848 36.67625,3.4575 36.7015,4.00375 L36.7015,4.00375 Z" id="Shape" fill="#F9F9FA" sketch:type="MSShapeGroup"></path>
                    <path d="M40.59375,2.1345 C40.59375,2.643 40.43075,3.087 40.105,3.4665 C39.779,3.84625 39.3225,4.03575 38.73525,4.03575 C38.47025,4.03575 38.105,4.025 37.6395,4.0035 C37.66275,3.46275 37.6745,2.853 37.6745,2.17475 C37.6745,1.52325 37.66275,0.96725 37.6395,0.507 L38.1095,0.507 C38.1865,0.507 38.301,0.50425 38.45325,0.499 C38.60525,0.49375 38.70475,0.491 38.75125,0.491 C39.3975,0.491 39.866,0.65225 40.15725,0.9745 C40.44825,1.29675 40.59375,1.68325 40.59375,2.1345 L40.59375,2.1345 Z M39.86075,2.25 C39.86075,1.90625 39.7605,1.61675 39.56,1.381 C39.3595,1.14575 39.05325,1.028 38.6415,1.028 C38.5645,1.028 38.459,1.036 38.3245,1.05225 C38.34225,1.4105 38.35125,1.7845 38.35125,2.17475 C38.35125,2.60275 38.36025,3.027 38.378,3.44775 C38.49425,3.471 38.61075,3.48275 38.727,3.48275 C39.112,3.48275 39.397,3.363 39.58225,3.124 C39.7675,2.885 39.86075,2.59375 39.86075,2.25 L39.86075,2.25 Z" id="Shape" fill="#F9F9FA" sketch:type="MSShapeGroup"></path>
                    <path d="M44.183,4.00375 L43.388,4.00375 C43.18025,3.37 43.021,2.97875 42.91,2.83025 C42.799,2.6815 42.62,2.60725 42.373,2.60725 C42.269,2.60725 42.16975,2.60825 42.075,2.61 C42.075,3.07025 42.083,3.53475 42.09925,4.00375 L41.35275,4.00375 C41.376,3.463 41.38775,2.85325 41.38775,2.175 C41.38775,1.5235 41.376,0.9675 41.35275,0.50725 L41.81725,0.50725 C41.871,0.50725 41.98325,0.5045 42.15425,0.49925 C42.32525,0.494 42.48325,0.49125 42.62825,0.49125 C43.45,0.49125 43.861,0.77225 43.861,1.3345 C43.861,1.78025 43.6265,2.09075 43.1575,2.2665 L43.1575,2.30675 C43.33825,2.35675 43.49675,2.498 43.63275,2.7295 C43.7685,2.96125 43.952,3.386 44.183,4.00375 L44.183,4.00375 Z M43.176,1.533 C43.176,1.17675 42.94675,0.9985 42.4885,0.9985 C42.32025,0.9985 42.1715,1.011 42.04275,1.036 C42.0625,1.3135 42.07225,1.67525 42.07225,2.121 C42.17075,2.12475 42.254,2.12625 42.322,2.12625 C42.89125,2.1265 43.176,1.92875 43.176,1.533 L43.176,1.533 Z" id="Shape" fill="#F9F9FA" sketch:type="MSShapeGroup"></path>
                    <path d="M48.0325,2.191 C48.0325,2.7405 47.86425,3.19625 47.5275,3.558 C47.19075,3.9195 46.7745,4.1005 46.27875,4.1005 C45.806,4.1005 45.41025,3.9345 45.09175,3.60225 C44.773,3.27025 44.61375,2.848 44.61375,2.33625 C44.61375,1.78675 44.782,1.331 45.11875,0.96925 C45.45525,0.60775 45.8715,0.42675 46.3675,0.42675 C46.84025,0.42675 47.23575,0.59225 47.5545,0.9235 C47.87325,1.25475 48.0325,1.677 48.0325,2.191 L48.0325,2.191 Z M47.2915,2.26875 C47.2915,1.8945 47.19575,1.591 47.00425,1.35825 C46.8125,1.1255 46.57625,1.00925 46.29525,1.00925 C46.03375,1.00925 45.81175,1.1265 45.62925,1.361 C45.44675,1.5955 45.355,1.89175 45.355,2.25 C45.355,2.62225 45.45125,2.92525 45.64375,3.159 C45.83625,3.39275 46.072,3.5095 46.3515,3.5095 C46.61275,3.5095 46.835,3.39175 47.0175,3.15625 C47.2,2.921 47.2915,2.625 47.2915,2.26875 L47.2915,2.26875 Z" id="Shape" fill="#F9F9FA" sketch:type="MSShapeGroup"></path>
                    <path d="M49.551,4.00375 L48.791,4.00375 C48.81425,3.44875 48.826,2.83925 48.826,2.175 C48.826,1.5215 48.81425,0.9655 48.791,0.50725 L49.551,0.50725 C49.52775,0.9585 49.516,1.51425 49.516,2.175 C49.516,2.84975 49.52775,3.4595 49.551,4.00375 L49.551,4.00375 Z" id="Shape" fill="#F9F9FA" sketch:type="MSShapeGroup"></path>
                    <path d="M53.4435,2.1345 C53.4435,2.643 53.2805,3.087 52.95475,3.4665 C52.62875,3.84625 52.17225,4.03575 51.585,4.03575 C51.32,4.03575 50.95475,4.025 50.48925,4.0035 C50.5125,3.46275 50.52425,2.853 50.52425,2.17475 C50.52425,1.52325 50.5125,0.96725 50.48925,0.507 L50.95925,0.507 C51.03625,0.507 51.15075,0.50425 51.303,0.499 C51.455,0.49375 51.5545,0.491 51.601,0.491 C52.24725,0.491 52.71575,0.65225 53.007,0.9745 C53.298,1.29675 53.4435,1.68325 53.4435,2.1345 L53.4435,2.1345 Z M52.7105,2.25 C52.7105,1.90625 52.61025,1.61675 52.40975,1.381 C52.20925,1.14575 51.903,1.028 51.49125,1.028 C51.41425,1.028 51.30875,1.036 51.17425,1.05225 C51.192,1.4105 51.201,1.7845 51.201,2.17475 C51.201,2.60275 51.21,3.027 51.22775,3.44775 C51.344,3.471 51.4605,3.48275 51.57675,3.48275 C51.96175,3.48275 52.24675,3.363 52.432,3.124 C52.61725,2.885 52.7105,2.59375 52.7105,2.25 L52.7105,2.25 Z" id="Shape" fill="#F9F9FA" sketch:type="MSShapeGroup"></path>
                    <path d="M58.6075,4.00375 L57.748,4.00375 C57.748,3.8855 57.6665,3.55075 57.50325,2.99925 L56.2625,2.99925 C56.09425,3.54175 56.01,3.8765 56.01,4.00375 L55.202,4.00375 C55.202,3.934 55.411,3.361 55.829,2.285 C56.247,1.209 56.456,0.61625 56.456,0.50725 L57.47125,0.50725 C57.47125,0.60925 57.66075,1.19325 58.03925,2.2595 C58.41775,3.32575 58.6075,3.907 58.6075,4.00375 L58.6075,4.00375 Z M57.36675,2.48625 C57.0605,1.5625 56.90725,1.063 56.90725,0.98775 L56.86425,0.98775 C56.86425,1.0575 56.706,1.557 56.38925,2.48625 L57.36675,2.48625 L57.36675,2.48625 Z" id="Shape" fill="#F9F9FA" sketch:type="MSShapeGroup"></path>
                    <path d="M61.74,1.42275 C61.74,1.85075 61.581,2.16675 61.26325,2.37075 C60.9455,2.57475 60.55575,2.677 60.09375,2.677 C60.0095,2.677 59.94975,2.67525 59.91375,2.67175 C59.91375,3.0085 59.9235,3.45225 59.94325,4.00375 L59.1885,4.00375 C59.21175,3.4865 59.2235,2.87675 59.2235,2.175 C59.2235,1.5305 59.21175,0.9745 59.1885,0.50725 L59.65575,0.50725 C59.722,0.50725 59.849,0.5045 60.037,0.49925 C60.225,0.494 60.38775,0.49125 60.52575,0.49125 C60.86575,0.49125 61.15325,0.56825 61.38775,0.72225 C61.62225,0.87625 61.74,1.1095 61.74,1.42275 L61.74,1.42275 Z M61.04725,1.5705 C61.04725,1.1875 60.793,0.99575 60.2845,0.99575 C60.15725,0.99575 60.023,1.00925 59.88175,1.036 C59.9015,1.3745 59.91125,1.7575 59.91125,2.1855 C59.956,2.18925 60.008,2.19075 60.067,2.19075 C60.7205,2.191 61.04725,1.98425 61.04725,1.5705 L61.04725,1.5705 Z" id="Shape" fill="#F9F9FA" sketch:type="MSShapeGroup"></path>
                    <path d="M64.961,1.42275 C64.961,1.85075 64.802,2.16675 64.4845,2.37075 C64.16675,2.57475 63.77675,2.677 63.31475,2.677 C63.2305,2.677 63.17075,2.67525 63.13475,2.67175 C63.13475,3.0085 63.1445,3.45225 63.16425,4.00375 L62.4095,4.00375 C62.43275,3.4865 62.4445,2.87675 62.4445,2.175 C62.4445,1.5305 62.43275,0.9745 62.4095,0.50725 L62.87675,0.50725 C62.943,0.50725 63.07,0.5045 63.258,0.49925 C63.446,0.494 63.60875,0.49125 63.74675,0.49125 C64.08675,0.49125 64.37425,0.56825 64.60875,0.72225 C64.84325,0.87625 64.961,1.1095 64.961,1.42275 L64.961,1.42275 Z M64.26825,1.5705 C64.26825,1.1875 64.014,0.99575 63.5055,0.99575 C63.37825,0.99575 63.244,1.00925 63.10275,1.036 C63.1225,1.3745 63.13225,1.7575 63.13225,2.1855 C63.177,2.18925 63.229,2.19075 63.288,2.19075 C63.9415,2.191 64.26825,1.98425 64.26825,1.5705 L64.26825,1.5705 Z" id="Shape" fill="#F9F9FA" sketch:type="MSShapeGroup"></path>
                    <path d="M70.22725,2.191 C70.22725,2.7405 70.059,3.19625 69.72225,3.558 C69.3855,3.91975 68.96925,4.1005 68.4735,4.1005 C68.00075,4.1005 67.605,3.9345 67.2865,3.60225 C66.968,3.27025 66.8085,2.848 66.8085,2.33625 C66.8085,1.78675 66.97675,1.331 67.3135,0.96925 C67.65025,0.6075 68.0665,0.42675 68.56225,0.42675 C69.035,0.42675 69.43075,0.59225 69.74925,0.9235 C70.06775,1.25475 70.22725,1.677 70.22725,2.191 L70.22725,2.191 Z M69.486,2.26875 C69.486,1.8945 69.39025,1.591 69.19875,1.35825 C69.00725,1.1255 68.77075,1.00925 68.48975,1.00925 C68.22825,1.00925 68.00625,1.1265 67.82375,1.361 C67.64125,1.5955 67.54975,1.89175 67.54975,2.25 C67.54975,2.62225 67.646,2.92525 67.8385,3.159 C68.031,3.39275 68.26675,3.5095 68.546,3.5095 C68.8075,3.5095 69.0295,3.39175 69.212,3.15625 C69.39475,2.921 69.486,2.625 69.486,2.26875 L69.486,2.26875 Z" id="Shape" fill="#F9F9FA" sketch:type="MSShapeGroup"></path>
                    <path d="M73.86725,4.00375 L73.204,4.00375 C73.204,3.93025 72.958,3.54275 72.4655,2.841 C71.95,2.1015 71.65625,1.596 71.58475,1.32375 L71.54175,1.32375 C71.5865,1.71575 71.609,2.07025 71.609,2.38725 C71.609,2.8295 71.6215,3.3685 71.6465,4.004 L70.98575,4.004 C71.0125,3.449 71.026,2.8395 71.026,2.17525 C71.026,1.52175 71.0125,0.96575 70.98575,0.5075 L71.78325,0.5075 C71.78325,0.6025 72.0045,0.98125 72.4465,1.6435 C72.9175,2.347 73.18775,2.82425 73.2575,3.075 L73.29775,3.075 C73.25475,2.67575 73.23325,2.31775 73.23325,2.00075 C73.23325,1.51575 73.22075,1.01775 73.19575,0.5075 L73.86725,0.5075 C73.842,0.9515 73.82975,1.5075 73.82975,2.17525 C73.82975,2.848 73.84225,3.4575 73.86725,4.00375 L73.86725,4.00375 Z" id="Shape" fill="#F9F9FA" sketch:type="MSShapeGroup"></path>
                </g>
            </g>
        </g>
    </g>
</svg>