<?xml version="1.0" encoding="UTF-8" standalone="no"?>
<svg width="128px" height="42px" viewBox="0 0 128 42" version="1.1" xmlns="http://www.w3.org/2000/svg" xmlns:xlink="http://www.w3.org/1999/xlink" xmlns:sketch="http://www.bohemiancoding.com/sketch/ns">
    <!-- Generator: Sketch 3.3.2 (12043) - http://www.bohemiancoding.com/sketch -->
    <title>btn_appstore</title>
    <desc>Created with Sketch.</desc>
    <defs></defs>
    <g id="ui-kit" stroke="none" stroke-width="1" fill="none" fill-rule="evenodd" sketch:type="MSPage">
        <g id="ui_webkit" sketch:type="MSArtboardGroup" transform="translate(-704.000000, -656.000000)">
            <g id="appstore" sketch:type="MSLayerGroup" transform="translate(704.000000, 656.000000)">
                <path d="M128,36.3236866 C128,39.4580599 125.467178,42 122.343005,42 L5.65824666,42 C2.53357316,42 0,39.4580599 0,36.3236866 L0,5.67581137 C0,2.54168908 2.53382341,-3.55271368e-15 5.65824666,-3.55271368e-15 L122.342754,-3.55271368e-15 C125.466927,-3.55271368e-15 127.99975,2.54168908 127.99975,5.67581137 L127.99975,36.3236866 L128,36.3236866 Z" id="Shape" opacity="0.6" fill="#000000" sketch:type="MSShapeGroup"></path>
                <g id="Group" transform="translate(9.052632, 5.250000)" fill="#FFFFFF" sketch:type="MSShapeGroup">
                    <path d="M13.6227018,0.06975 L2.64110526,0.06975 C1.22763743,0.06975 0.0777017544,1.213 0.0777017544,2.61725 L0.0777017544,26.875 C0.0777017544,28.2795 1.22763743,29.4225 2.64110526,29.4225 L13.6227018,29.4225 C15.0361696,29.4225 16.1856023,28.2795 16.1856023,26.875 L16.1856023,2.61725 C16.1856023,1.21275 15.0361696,0.06975 13.6227018,0.06975 L13.6227018,0.06975 Z M6.85963158,2.648 L9.40392398,2.648 C9.57139766,2.648 9.70592982,2.7815 9.70592982,2.94875 C9.70592982,3.11275 9.5711462,3.246 9.40392398,3.246 L6.85963158,3.246 C6.69291228,3.246 6.55712281,3.1125 6.55712281,2.94875 C6.55712281,2.78125 6.69291228,2.648 6.85963158,2.648 L6.85963158,2.648 Z M8.12926316,28.294 C7.27454386,28.294 6.57849708,27.601 6.57849708,26.74875 C6.57849708,25.89575 7.2742924,25.20275 8.12926316,25.20275 C8.98750292,25.20275 9.68581287,25.8955 9.68581287,26.74875 C9.68581287,27.601 8.98750292,28.294 8.12926316,28.294 L8.12926316,28.294 Z M14.9199942,24.587 L1.3435614,24.587 L1.3435614,4.90525 L14.9199942,4.90525 L14.9199942,24.587 L14.9199942,24.587 Z" id="Shape"></path>
                    <g transform="translate(23.134503, 0.000000)" id="Shape">
                        <g transform="translate(0.000000, 11.750000)">
                            <path d="M13.4300819,15.75775 L10.7633275,15.75775 L9.30635673,11.19975 L4.23135088,11.19975 L2.83724561,15.75775 L0.244672515,15.75775 L5.2711462,0.23075 L8.3777076,0.23075 L13.4300819,15.75775 L13.4300819,15.75775 Z M8.86152047,9.28625 L7.54662573,5.2295 C7.40505263,4.81475 7.1400117,3.83875 6.75426901,2.30475 L6.71076608,2.30475 C6.55234503,2.96575 6.31119298,3.93825 5.96845029,5.2295 L4.66814035,9.28625 L8.86152047,9.28625 L8.86152047,9.28625 Z"></path>
                            <path d="M25.7099766,10.0225 C25.7099766,11.93275 25.1909591,13.4295 24.1461345,14.53875 C23.2179883,15.51975 22.0582456,16.01 20.6772164,16.01 C19.1830292,16.01 18.1105439,15.48275 17.461269,14.41825 L17.461269,20.29675 L14.9634971,20.29675 L14.9634971,8.2395 C14.9634971,7.04325 14.9277895,5.818 14.8664327,4.56075 L17.0674795,4.56075 L17.2050292,6.3325 L17.249538,6.3325 C18.0864035,5.003 19.3510058,4.33575 21.0526491,4.33575 C22.3821287,4.33575 23.4883099,4.8535 24.3792398,5.90025 C25.2658947,6.9435 25.7099766,8.31975 25.7099766,10.0225 L25.7099766,10.0225 Z M23.1593977,10.111 C23.1593977,9.0225 22.9152281,8.122 22.4203509,7.41925 C21.8754327,6.68475 21.1524795,6.30975 20.2386667,6.30975 C19.6223333,6.30975 19.0645906,6.5125 18.5616667,6.91775 C18.0587427,7.33075 17.7303333,7.86475 17.5751813,8.52575 C17.4992398,8.83425 17.4610175,9.085 17.4610175,9.28625 L17.4610175,11.14975 C17.4610175,11.9665 17.7092105,12.65475 18.2138947,13.21575 C18.7143041,13.7705 19.366848,14.052 20.1690117,14.052 C21.1112398,14.052 21.8492807,13.69325 22.3718187,12.97 C22.8976257,12.24775 23.1593977,11.296 23.1593977,10.111 L23.1593977,10.111 Z"></path>
                            <path d="M38.0836667,10.0225 C38.0836667,11.93275 37.5646491,13.4295 36.5213333,14.53875 C35.5881579,15.51975 34.4334444,16.01 33.0488947,16.01 C31.5577251,16.01 30.4872515,15.48275 29.8347076,14.41825 L29.8347076,20.29675 L27.3319064,20.29675 L27.3319064,8.2395 C27.3319064,7.04325 27.3012281,5.818 27.2396199,4.56075 L29.4358889,4.56075 L29.580731,6.3325 L29.6219708,6.3325 C30.4628596,5.003 31.7257018,4.33575 33.4255848,4.33575 C34.7550643,4.33575 35.8612456,4.8535 36.7506667,5.90025 C37.6405906,6.9435 38.0836667,8.31975 38.0836667,10.0225 L38.0836667,10.0225 Z M35.5366082,10.111 C35.5366082,9.0225 35.2904269,8.122 34.7955497,7.41925 C34.2539006,6.68475 33.5259181,6.30975 32.6138655,6.30975 C31.9960234,6.30975 31.4400409,6.5125 30.9353567,6.91775 C30.4349474,7.33075 30.1040234,7.86475 29.9488713,8.52575 C29.8736842,8.83425 29.8349591,9.085 29.8349591,9.28625 L29.8349591,11.14975 C29.8349591,11.9665 30.083152,12.65475 30.5878363,13.21575 C31.0874912,13.7705 31.7422982,14.052 32.5429532,14.052 C33.4894561,14.052 34.2237251,13.69325 34.7490292,12.97 C35.2758421,12.24775 35.5366082,11.296 35.5366082,10.111 L35.5366082,10.111 Z"></path>
                            <path d="M52.2201053,11.40225 C52.2201053,12.72375 51.7559064,13.80275 50.8355556,14.62725 C49.813614,15.53425 48.3961228,15.98625 46.5808187,15.98625 C44.8962749,15.98625 43.5499474,15.66125 42.5327836,15.01825 L43.1134094,12.94575 C44.2095322,13.58725 45.4142865,13.912 46.724655,13.912 C47.670655,13.912 48.4034152,13.6995 48.927462,13.28175 C49.4515088,12.8605 49.7132807,12.29625 49.7132807,11.5805 C49.7132807,10.96 49.4967719,10.4295 49.0665205,9.9985 C48.6314912,9.5675 47.9168363,9.17025 46.9104854,8.80075 C44.1808655,7.78925 42.8109006,6.30675 42.8109006,4.35675 C42.8109006,3.08025 43.291193,2.035 44.2583158,1.223 C45.2239298,0.4095 46.5023626,0.001 48.0931111,0.001 C49.515883,0.001 50.6952398,0.2485 51.6409883,0.73725 L51.0088129,2.76475 C50.128193,2.28875 49.1286316,2.04925 48.0133977,2.04925 C47.1287544,2.04925 46.436731,2.27125 45.940345,2.69225 C45.5229181,3.08 45.3162164,3.551 45.3162164,4.1025 C45.3162164,4.712 45.553848,5.22 46.0323801,5.6235 C46.4513158,5.99175 47.2067076,6.3905 48.3013216,6.818 C49.6504152,7.352 50.6341345,7.9855 51.2718421,8.7105 C51.9032632,9.4325 52.2201053,10.32975 52.2201053,11.40225 L52.2201053,11.40225 Z"></path>
                            <path d="M59.657848,6.42425 L56.8957895,6.42425 L56.8957895,11.867 C56.8957895,13.248 57.385386,13.93475 58.360807,13.93475 C58.807152,13.93475 59.1760468,13.901 59.4717661,13.82525 L59.5414211,15.70975 C59.0462924,15.89625 58.3995322,15.98625 57.5961111,15.98625 C56.610883,15.98625 55.8328596,15.69175 55.2798947,15.089 C54.7203918,14.49075 54.4420234,13.48425 54.4420234,12.07275 L54.4420234,6.42425 L52.7992222,6.42425 L52.7992222,4.56075 L54.4420234,4.56075 L54.4420234,2.51075 L56.8957895,1.7745 L56.8957895,4.561 L59.657848,4.561 L59.657848,6.42425 L59.657848,6.42425 Z"></path>
                            <path d="M71.4053977,10.06925 C71.4053977,11.793 70.9122807,13.1995 69.9255439,14.309 C68.8872573,15.44275 67.5125146,16.01025 65.8020702,16.01025 C64.1459415,16.01025 62.826269,15.4685 61.8445614,14.37675 C60.8643626,13.28825 60.3775322,11.90875 60.3775322,10.2495 C60.3775322,8.516 60.8804561,7.09475 61.8930936,5.99175 C62.9067368,4.881 64.2671462,4.33575 65.9813626,4.33575 C67.639,4.33575 68.965462,4.876 69.9692982,5.96925 C70.9251053,7.02375 71.4053977,8.39525 71.4053977,10.06925 L71.4053977,10.06925 Z M68.8115673,10.12525 C68.8115673,9.101 68.5880175,8.2185 68.1401637,7.485 C67.6083216,6.596 66.8627368,6.154 65.8888246,6.154 C64.8864971,6.154 64.1212982,6.59625 63.5992632,7.485 C63.1463801,8.2185 62.9230819,9.114 62.9230819,10.1685 C62.9230819,11.19925 63.1466316,12.07875 63.5992632,12.81175 C64.1376433,13.69925 64.8930351,14.143 65.8682047,14.143 C66.8240117,14.143 67.5723626,13.69275 68.1127544,12.78425 C68.5802222,12.042 68.8115673,11.14975 68.8115673,10.12525 L68.8115673,10.12525 Z"></path>
                            <path d="M78.9354269,6.74875 C78.6879883,6.702 78.4247076,6.6845 78.1496082,6.6845 C77.2664737,6.6845 76.5887836,7.01575 76.1084912,7.67325 C75.6895556,8.2585 75.4843626,8.98525 75.4843626,9.8825 L75.4843626,15.7575 L72.9810585,15.7575 L72.9810585,8.08175 C72.9810585,6.80025 72.9584269,5.62325 72.9129123,4.5605 L75.0915789,4.5605 L75.1853743,6.702 L75.2517602,6.702 C75.5135322,5.96875 75.9309591,5.3755 76.5050468,4.9335 C77.0595205,4.53 77.664538,4.33525 78.312807,4.33525 C78.544152,4.33525 78.7528655,4.34825 78.9356784,4.377 L78.9356784,6.74875 L78.9354269,6.74875 Z"></path>
                            <path d="M89.7354678,9.63175 C89.7354678,10.07425 89.7030292,10.45025 89.6431813,10.762 L82.1342749,10.762 C82.1652047,11.86675 82.5275614,12.70925 83.2261228,13.29125 C83.8567895,13.8155 84.673538,14.076 85.6813977,14.076 C86.7938655,14.076 87.8044912,13.90075 88.7150351,13.542 L89.1113392,15.27375 C88.047152,15.737 86.7843099,15.962 85.3301053,15.962 C83.5884795,15.962 82.2167544,15.4555 81.2192047,14.433 C80.2261813,13.412 79.7212456,12.04225 79.7212456,10.32325 C79.7212456,8.63175 80.1887135,7.22825 81.1120819,6.10275 C82.0922807,4.90475 83.403655,4.30825 85.0550058,4.30825 C86.6807076,4.30825 87.9065848,4.90475 88.7394269,6.10275 C89.4005205,7.05775 89.7354678,8.23475 89.7354678,9.63175 L89.7354678,9.63175 Z M87.3485906,8.98225 C87.3614152,8.246 87.2027427,7.6125 86.863269,7.072 C86.426731,6.38375 85.7636257,6.0335 84.8691754,6.0335 C84.0524269,6.0335 83.3873099,6.37925 82.8765906,7.05275 C82.457655,7.58825 82.2102164,8.23475 82.1340234,8.98225 L87.3485906,8.98225 L87.3485906,8.98225 Z"></path>
                        </g>
                        <g transform="translate(0.251462, 0.000000)">
                            <path d="M6.81814035,8.4385 L5.44742105,8.4385 L4.69705848,6.09275 L2.0871345,6.09275 L1.37222807,8.4385 L0.0374678363,8.4385 L2.623,0.454 L4.22003509,0.454 L6.81814035,8.4385 L6.81814035,8.4385 Z M4.47049123,5.1095 L3.7912924,3.0245 C3.71962573,2.8115 3.58433918,2.31 3.38618713,1.52 L3.36229825,1.52 C3.28283626,1.85975 3.15534503,2.36125 2.98108187,3.0245 L2.31370175,5.1095 L4.47049123,5.1095 L4.47049123,5.1095 Z"></path>
                            <path d="M13.0619415,2.68075 L10.869193,8.4385 L9.61816959,8.4385 L7.49708772,2.68075 L8.87912281,2.68075 L9.86837427,5.7255 C10.0350936,6.23075 10.174152,6.71675 10.2852982,7.18275 L10.3212573,7.18275 C10.4163099,6.76425 10.5553684,6.27825 10.7381813,5.7255 L11.7153626,2.68075 L13.0619415,2.68075 L13.0619415,2.68075 Z"></path>
                            <path d="M18.877,8.4385 L17.7210292,8.4385 L17.6257251,7.77525 L17.5900175,7.77525 C17.1924561,8.30425 16.6286784,8.56875 15.8976784,8.56875 C15.3497427,8.56875 14.9086784,8.395 14.5752398,8.0475 C14.2732339,7.732 14.1223567,7.34075 14.1223567,6.875 C14.1223567,6.172 14.4183275,5.635 15.010269,5.2635 C15.6019591,4.8925 16.4342982,4.71075 17.5065322,4.71875 L17.5065322,4.61175 C17.5065322,3.85375 17.1054503,3.4745 16.3027836,3.4745 C15.7312105,3.4745 15.2265263,3.61675 14.7897368,3.901 L14.527462,3.06 C15.0676023,2.728 15.7312105,2.5625 16.5175322,2.5625 C18.0348538,2.5625 18.7935146,3.356 18.7935146,4.94375 L18.7935146,7.064 C18.7935146,7.641 18.8211754,8.099 18.877,8.4385 L18.877,8.4385 Z M17.5422398,6.46 L17.5422398,5.57175 C16.1199708,5.548 15.4090877,5.93525 15.4090877,6.73275 C15.4090877,7.033 15.4920702,7.25825 15.6577836,7.408 C15.824,7.558 16.0334678,7.633 16.2861871,7.633 C16.5703392,7.633 16.8333684,7.54425 17.074269,7.3665 C17.3151696,7.18875 17.4632807,6.96175 17.5186023,6.685 C17.5344444,6.62225 17.5422398,6.54725 17.5422398,6.46 L17.5422398,6.46 Z"></path>
                            <path d="M22.5111287,0.96325 C22.5111287,1.1925 22.4354386,1.37775 22.2848129,1.52 C22.1334327,1.66225 21.9390526,1.7335 21.7009181,1.7335 C21.4861696,1.7335 21.3053684,1.66025 21.1587661,1.514 C21.0116608,1.368 20.9379825,1.18425 20.9379825,0.96325 C20.9379825,0.74225 21.0136725,0.5605 21.1642982,0.41825 C21.3151754,0.2765 21.5020117,0.20525 21.724807,0.20525 C21.946848,0.20525 22.1334327,0.2765 22.2848129,0.41825 C22.4354386,0.5605 22.5111287,0.74225 22.5111287,0.96325 L22.5111287,0.96325 Z M22.3677953,8.4385 L21.0808129,8.4385 L21.0808129,2.68075 L22.3677953,2.68075 L22.3677953,8.4385 L22.3677953,8.4385 Z"></path>
                            <path d="M25.9901053,8.4385 L24.7031228,8.4385 L24.7031228,0.039 L25.9901053,0.039 L25.9901053,8.4385 L25.9901053,8.4385 Z"></path>
                            <path d="M32.6752222,8.4385 L31.5195029,8.4385 L31.4241988,7.77525 L31.3882398,7.77525 C30.9909298,8.30425 30.4269006,8.56875 29.6959006,8.56875 C29.1479649,8.56875 28.7069006,8.395 28.373462,8.0475 C28.0714561,7.732 27.9205789,7.34075 27.9205789,6.875 C27.9205789,6.172 28.2165497,5.635 28.8084912,5.2635 C29.3999298,4.8925 30.2325205,4.71075 31.3047544,4.71875 L31.3047544,4.61175 C31.3047544,3.85375 30.9036725,3.4745 30.1010058,3.4745 C29.5294327,3.4745 29.0247485,3.61675 28.5879591,3.901 L28.3256842,3.06 C28.8658246,2.728 29.5294327,2.5625 30.3157544,2.5625 C31.8333275,2.5625 32.5914854,3.356 32.5914854,4.94375 L32.5914854,7.064 C32.5917368,7.641 32.6196491,8.099 32.6752222,8.4385 L32.6752222,8.4385 Z M31.3409649,6.46 L31.3409649,5.57175 C29.9186959,5.548 29.2078129,5.93525 29.2078129,6.73275 C29.2078129,7.033 29.2907953,7.25825 29.4565088,7.408 C29.6227251,7.558 29.832193,7.633 30.0849123,7.633 C30.3690643,7.633 30.6318421,7.54425 30.8729942,7.3665 C31.1138947,7.18875 31.2620058,6.96175 31.317076,6.685 C31.3329181,6.62225 31.3409649,6.54725 31.3409649,6.46 L31.3409649,6.46 Z"></path>
                            <path d="M40.4081813,5.47675 C40.4081813,6.44825 40.1381111,7.222 39.5982222,7.7985 C39.1209474,8.31225 38.5373041,8.56875 37.8462865,8.56875 C37.0202339,8.56875 36.4121988,8.2295 36.0231871,7.55025 L35.9995497,7.55025 L35.928386,8.4385 L34.8322632,8.4385 C34.8636959,7.97275 34.8790351,7.45525 34.8790351,6.8865 L34.8790351,0.039 L36.166269,0.039 L36.166269,3.522 C36.5497485,2.882 37.1690994,2.5625 38.0238187,2.5625 C38.726655,2.5625 39.2997368,2.829 39.7438187,3.362 C40.1866433,3.895 40.4081813,4.60025 40.4081813,5.47675 L40.4081813,5.47675 Z M39.0978129,5.52425 C39.0978129,4.9635 38.9705731,4.50525 38.7165965,4.14975 C38.438731,3.763 38.0610351,3.56925 37.5845146,3.56925 C37.2656608,3.56925 36.9805029,3.67175 36.7255205,3.87725 C36.4720468,4.0825 36.3010526,4.35525 36.2137953,4.695 C36.1823626,4.82925 36.166269,4.9635 36.166269,5.09775 L36.166269,6.10475 C36.166269,6.49975 36.2987895,6.83925 36.5655906,7.12375 C36.8318889,7.408 37.1633158,7.55025 37.5606257,7.55025 C38.0454444,7.55025 38.4226374,7.3685 38.6927076,7.00525 C38.9627778,6.64175 39.0978129,6.14825 39.0978129,5.52425 L39.0978129,5.52425 Z"></path>
                            <path d="M43.4111404,8.4385 L42.1244094,8.4385 L42.1244094,0.039 L43.4111404,0.039 L43.4111404,8.4385 L43.4111404,8.4385 Z"></path>
                            <path d="M50.2750468,5.28725 C50.2750468,5.5165 50.2589532,5.71 50.2275205,5.868 L46.3663216,5.868 C46.3824152,6.43625 46.5697544,6.871 46.9268304,7.17075 C47.2519708,7.43975 47.6734211,7.574 48.189924,7.574 C48.7614971,7.574 49.2817719,7.48325 49.7507485,7.3015 L49.9536784,8.19 C49.4054912,8.427 48.7577251,8.54525 48.0111345,8.54525 C47.1129123,8.54525 46.4085673,8.28275 45.8958363,7.7575 C45.3831053,7.2325 45.1276199,6.5275 45.1276199,5.643 C45.1276199,4.774 45.3652515,4.05175 45.8422749,3.47475 C46.3431871,2.859 47.0176082,2.55075 47.8683041,2.55075 C48.7016491,2.55075 49.3333216,2.859 49.7625673,3.47475 C50.1038012,3.96475 50.2750468,4.569 50.2750468,5.28725 L50.2750468,5.28725 Z M49.0479123,4.9555 C49.0552047,4.5765 48.9717193,4.24875 48.7974561,3.97225 C48.5749123,3.617 48.2336784,3.43925 47.773,3.43925 C47.3515497,3.43925 47.0103158,3.613 46.7485439,3.96025 C46.5335439,4.23675 46.4063041,4.569 46.3663216,4.9555 L49.0479123,4.9555 L49.0479123,4.9555 Z"></path>
                            <path d="M60.7725789,5.51225 C60.7725789,6.397 60.5180994,7.12375 60.0103977,7.692 C59.4780526,8.27675 58.7706901,8.56875 57.8890643,8.56875 C57.0383684,8.56875 56.3616842,8.2885 55.8572515,7.72775 C55.3523158,7.167 55.1008538,6.46 55.1008538,5.607 C55.1008538,4.71475 55.360614,3.98375 55.8813918,3.4155 C56.4014152,2.84675 57.1022398,2.5625 57.9843684,2.5625 C58.8345614,2.5625 59.5177836,2.84275 60.0337836,3.4035 C60.5261462,3.9485 60.7725789,4.65175 60.7725789,5.51225 L60.7725789,5.51225 Z M59.4378187,5.542 C59.4378187,5.0145 59.3229006,4.5615 59.0925614,4.18325 C58.8224912,3.7265 58.4377544,3.49825 57.9368421,3.49825 C57.4200877,3.49825 57.0273041,3.72675 56.7572339,4.18325 C56.5268947,4.5615 56.4114737,5.022 56.4114737,5.5655 C56.4114737,6.09275 56.5268947,6.54575 56.7572339,6.92425 C57.0356023,7.38075 57.424614,7.60925 57.9252749,7.60925 C58.417386,7.60925 58.8023743,7.377 59.0804912,6.91225 C59.3188772,6.5265 59.4378187,6.06975 59.4378187,5.542 L59.4378187,5.542 Z"></path>
                            <path d="M67.5170409,8.4385 L66.2303099,8.4385 L66.2303099,5.13325 C66.2303099,4.1145 65.8407953,3.605 65.0627719,3.605 C64.6810526,3.605 64.3712515,3.74525 64.132614,4.026 C63.8949825,4.30625 63.775538,4.63575 63.775538,5.01475 L63.775538,8.43875 L62.488807,8.43875 L62.488807,4.32775 C62.488807,3.8225 62.4727135,3.27325 62.4412807,2.681 L63.5733626,2.681 L63.6322047,3.56975 L63.6686667,3.56975 C63.8195439,3.29325 64.0413333,3.0645 64.3360468,2.88225 C64.6853275,2.66925 65.0750936,2.56275 65.5035848,2.56275 C66.0437251,2.56275 66.4928363,2.73625 66.8499123,3.084 C67.295,3.5105 67.5172924,4.146 67.5172924,4.99125 L67.5172924,8.4385 L67.5170409,8.4385 Z"></path>
                            <path d="M75.7989415,3.64075 L74.3809474,3.64075 L74.3809474,6.4365 C74.3809474,7.1475 74.6309006,7.503 75.1313099,7.503 C75.362152,7.503 75.5527602,7.48325 75.702883,7.4435 L75.7388421,8.415 C75.4848655,8.50975 75.150924,8.55725 74.7382749,8.55725 C74.2300702,8.55725 73.8325088,8.40325 73.546345,8.095 C73.2599298,7.787 73.1181053,7.26975 73.1181053,6.543 L73.1181053,3.64075 L72.2714327,3.64075 L72.2714327,2.681 L73.1181053,2.681 L73.1181053,1.62675 L74.3806959,1.2475 L74.3806959,2.681 L75.7986901,2.681 L75.7986901,3.64075 L75.7989415,3.64075 Z"></path>
                            <path d="M82.6502749,8.4385 L81.3630409,8.4385 L81.3630409,5.157 C81.3630409,4.12225 80.9740292,3.605 80.195,3.605 C79.5992865,3.605 79.1901579,3.90525 78.967614,4.5055 C78.927883,4.632 78.9087719,4.78625 78.9087719,4.96775 L78.9087719,8.43875 L77.621538,8.43875 L77.621538,0.039 L78.9087719,0.039 L78.9087719,3.49825 L78.9324094,3.49825 C79.3370117,2.8745 79.9171345,2.5625 80.6725263,2.5625 C81.2043684,2.5625 81.6449298,2.736 81.9947135,3.08375 C82.4312515,3.51775 82.6502749,4.1615 82.6502749,5.01425 L82.6502749,8.4385 L82.6502749,8.4385 Z"></path>
                            <path d="M89.2521579,5.28725 C89.2521579,5.5165 89.2360643,5.71 89.2041287,5.868 L85.3431813,5.868 C85.3592749,6.43625 85.5461111,6.871 85.9036901,7.17075 C86.2283275,7.43975 86.6497778,7.574 87.1662807,7.574 C87.7378538,7.574 88.2581287,7.48325 88.7271053,7.3015 L88.9300351,8.19 C88.381848,8.427 87.7340819,8.54525 86.9874912,8.54525 C86.089269,8.54525 85.384924,8.28275 84.872193,7.7575 C84.3599649,7.2325 84.1039766,6.5275 84.1039766,5.643 C84.1039766,4.774 84.3416082,4.05175 84.8191345,3.47475 C85.3195439,2.859 85.9939649,2.55075 86.8446608,2.55075 C87.6785088,2.55075 88.3096784,2.859 88.7394269,3.47475 C89.0804094,3.96475 89.2521579,4.569 89.2521579,5.28725 L89.2521579,5.28725 Z M88.0245205,4.9555 C88.0318129,4.5765 87.9483275,4.24875 87.7740643,3.97225 C87.5515205,3.617 87.2102865,3.43925 86.7496082,3.43925 C86.3281579,3.43925 85.986924,3.613 85.725152,3.96025 C85.510152,4.23675 85.3829123,4.569 85.3434327,4.9555 L88.0245205,4.9555 L88.0245205,4.9555 Z"></path>
                        </g>
                    </g>
                </g>
            </g>
        </g>
    </g>
</svg>