<?xml version="1.0" encoding="UTF-8" standalone="no"?>
<svg width="120px" height="120px" viewBox="0 0 120 120" version="1.1" xmlns="http://www.w3.org/2000/svg" xmlns:xlink="http://www.w3.org/1999/xlink" xmlns:sketch="http://www.bohemiancoding.com/sketch/ns">
    <!-- Generator: Sketch 3.3.2 (12043) - http://www.bohemiancoding.com/sketch -->
    <title>ico_mobile_hover</title>
    <desc>Created with Sketch.</desc>
    <defs>
        <path id="path-1" d="M3,11 L41,11 L41,69 L3,69 L3,11 Z"></path>
        <path id="path-3" d="M2.00285922,58 C0.896710617,58 0,57.1121679 0,56.0035087 L0,1.99649128 C0,0.893859594 0.90185079,0 2.00285922,0 L35.9971408,0 C37.1032894,0 38,0.887832139 38,1.99649128 L38,56.0035087 C38,57.1061404 37.0981492,58 35.9971408,58 L2.00285922,58 Z"></path>
    </defs>
    <g id="ui-kit" stroke="none" stroke-width="1" fill="none" fill-rule="evenodd" sketch:type="MSPage">
        <g id="ui_webkit" sketch:type="MSArtboardGroup" transform="translate(-128.000000, -720.000000)">
            <g id="ico_mobile_hover" sketch:type="MSLayerGroup" transform="translate(128.000000, 720.000000)">
                <rect id="bounds" sketch:type="MSShapeGroup" x="0" y="0" width="120" height="120"></rect>
                <g id="Imported-Layers" transform="translate(38.000000, 18.000000)">
                    <path d="M44,78.3236872 C44,81.4587593 41.3603597,84 38.1017437,84 L5.89825635,84 C2.64088071,84 0,81.4587593 0,78.3236872 L0,5.67631282 C0,2.54124067 2.64088071,0 5.89825635,0 L38.1017437,0 C41.3603597,0 44,2.54124067 44,5.67631282 L44,78.3236872 Z M3,12.9964913 C3,11.8938596 3.90185079,11 5.00285922,11 L38.9971408,11 C40.1032894,11 41,11.8878321 41,12.9964913 L41,67.0035087 C41,68.1061404 40.0981492,69 38.9971408,69 L5.00285922,69 C3.89671062,69 3,68.1121679 3,67.0035087 L3,12.9964913 Z M25.1753372,7 L18.8246628,7 C18.3699422,7 18,6.55124056 18,5.99892125 C18,5.44875944 18.3699422,5 18.8246628,5 L25.1753372,5 C25.6300578,5 26,5.44875944 26,5.99892125 C26,6.55124056 25.6300578,7 25.1753372,7 Z M22.0003173,80 C19.7951931,80 18,78.2048069 18,76.0003173 C18,73.793924 19.7951931,72 22.0003173,72 C24.2054414,72 26,73.793924 26,76.0003173 C26,78.2048069 24.2054414,80 22.0003173,80 Z M15.000392,7 C14.4492356,7 14,6.55215686 14,6.00078431 C14,5.44862745 14.4492356,5 15.000392,5 C15.5515484,5 16,5.44862745 16,6.00078431 C16,6.55215686 15.5515484,7 15.000392,7 Z" id="Fill-1" fill="#275FB3" sketch:type="MSShapeGroup"></path>
                    <mask id="mask-2" sketch:name="Mask" fill="white">
                        <use xlink:href="#path-1"></use>
                    </mask>
                    <use id="Mask" sketch:type="MSShapeGroup" xlink:href="#path-1"></use>
                    <g id="map-copy" mask="url(#mask-2)">
                        <g transform="translate(3.000000, 11.000000)">
                            <mask id="mask-4" sketch:name="Mask" fill="white">
                                <use xlink:href="#path-3"></use>
                            </mask>
                            <use id="Mask" stroke="none" fill="#FFFFFF" fill-rule="evenodd" sketch:type="MSShapeGroup" xlink:href="#path-3"></use>
                            <g id="Group" stroke="none" stroke-width="1" fill="none" fill-rule="evenodd" sketch:type="MSLayerGroup" mask="url(#mask-4)">
                                <g transform="translate(-25.000000, -5.000000)" sketch:type="MSShapeGroup">
                                    <path d="M45.7744141,0.535644531 L45.7744141,23.5538601 L51.1869388,28.9663849 L51.1869388,52.3467106 L62.6103914,63.7701632" id="Path-917" stroke="#E6E6E6" stroke-width="3"></path>
                                    <path d="M39.315918,1.07128906 L39.315918,21.0508052" id="Path-908" stroke="#CCCCCC" stroke-width="1"></path>
                                    <path d="M0.718261719,27.2333984 L34.3619313,27.2333984 L45.2167969,34.4858398 L45.2456055,38.7988281 L48.5241333,42.0773559 L88.6187711,42.0773559" id="Path-908" stroke="#CCCCCC" stroke-width="1"></path>
                                    <path d="M23.5820313,12.9599609 L33.5129479,12.9599609 L35.5129479,21.5132225 L42.2128796,21.5132225 L49.2725997,14.4535025 L55.1407684,14.4535025 L64.2973633,25.0092773" id="Path-909" stroke="#CCCCCC" stroke-width="1"></path>
                                    <path d="M8.65673828,5.34619141 L23.4873047,12.5268555 L23.4873047,35.3148584 L34.9599661,44.7875199 L53.1480298,62.9755835" id="Path-910" stroke="#CCCCCC" stroke-width="1"></path>
                                    <path d="M78.5478516,15.4165039 L12.3730469,60.8925781" id="Path-911" stroke="#CCCCCC" stroke-width="1"></path>
                                    <path d="M23.5800781,22.7143555 L34.2211914,24.4614258 L39.2915039,27.5493164 L39.2915039,30.3680096" id="Path-912" stroke="#CCCCCC" stroke-width="1"></path>
                                    <path d="M38.9189453,30.3730469 L0.715332031,41.7451172" id="Path-913" stroke="#CCCCCC" stroke-width="1"></path>
                                    <path d="M54.1337891,31.8354492 L54.1337891,42.3729973" id="Path-914" stroke="#CCCCCC" stroke-width="1"></path>
                                    <path d="M57.2294922,30.3920898 L69.0589514,42.2215491" id="Path-915" stroke="#CCCCCC" stroke-width="1"></path>
                                    <path d="M35.4746094,21.5473633 L48.5722656,31.359375 L48.5722656,48.4388487 L42.7285156,65.6889648" id="Path-916" stroke="#CCCCCC" stroke-width="1"></path>
                                </g>
                            </g>
                            <circle id="Oval-320" stroke="none" fill="#FF5722" fill-rule="evenodd" sketch:type="MSShapeGroup" mask="url(#mask-4)" cx="30" cy="49" r="5"></circle>
                        </g>
                    </g>
                </g>
            </g>
        </g>
    </g>
</svg>