<?xml version="1.0" encoding="UTF-8" standalone="no"?>
<svg width="36px" height="36px" viewBox="0 0 36 36" version="1.1" xmlns="http://www.w3.org/2000/svg" xmlns:xlink="http://www.w3.org/1999/xlink" xmlns:sketch="http://www.bohemiancoding.com/sketch/ns">
    <!-- Generator: Sketch 3.3.2 (12043) - http://www.bohemiancoding.com/sketch -->
    <title>ico_m_mlab_sms</title>
    <desc>Created with Sketch.</desc>
    <defs></defs>
    <g id="ui-kit" stroke="none" stroke-width="1" fill="none" fill-rule="evenodd" sketch:type="MSPage">
        <g id="ui_webkit" sketch:type="MSArtboardGroup" transform="translate(-800.000000, -592.000000)">
            <g id="ico_m_mlab_sms" sketch:type="MSLayerGroup" transform="translate(800.000000, 592.000000)">
                <rect id="bounds-2" sketch:type="MSShapeGroup" x="0" y="0" width="36" height="36"></rect>
                <g id="Rectangle-1258-Copy-5" transform="translate(5.000000, 8.000000)" sketch:type="MSShapeGroup">
                    <path d="M0,1.5032506 C0,0.673028218 0.6688281,0 1.49125692,0 L24.5087431,0 C25.3323415,0 26,0.665435791 26,1.5032506 L26,18.4967494 C26,19.3269718 25.3361142,20 24.5069036,20 L11,20 L4.99707031,25 L4.99707031,20 L1.49928586,20 C0.671253146,20 0,19.3345642 0,18.4967494 L0,1.5032506 Z" id="Path" stroke-opacity="0.6" stroke="#000000" stroke-width="2"></path>
                    <rect id="Rectangle-1251" fill-opacity="0.6" fill="#000000" x="3" y="5" width="20" height="2"></rect>
                    <rect id="Rectangle-1251-Copy" fill-opacity="0.6" fill="#000000" x="5" y="10" width="16" height="2"></rect>
                </g>
            </g>
        </g>
    </g>
</svg>