<?xml version="1.0" encoding="UTF-8" standalone="no"?>
<svg width="120px" height="120px" viewBox="0 0 120 120" version="1.1" xmlns="http://www.w3.org/2000/svg" xmlns:xlink="http://www.w3.org/1999/xlink">
    <defs></defs>
    <g stroke="none" stroke-width="1" fill="none" fill-rule="evenodd">
        <g transform="translate(-512.000000, -848.000000)">
            <g transform="translate(512.000000, 848.000000)">
                <g>
                    <rect x="0" y="0" width="120" height="120"></rect>
                    <g transform="translate(25.000000, 11.000000)">
                        <path d="M6.49468691,5.99793926 C6.58440885,3.78993837 8.42678969,1.74262938 10.6144654,1.46140577 C10.6144654,1.46140577 19,2.88657986e-15 35,0 C51,-2.99760217e-15 59.4072005,1.4640367 59.4072005,1.4640367 C61.5808037,1.76004106 63.41591,3.79778412 63.5053131,5.99793926 L67,92 L3,92 L6.49468691,5.99793926 Z M39,60.9989566 C39,60.4472481 39.4553056,60 39.9918031,60 L58.0081969,60 C58.5559546,60 59,60.4426603 59,60.9989566 L59,62.0010434 C59,62.5527519 58.5446944,63 58.0081969,63 L39.9918031,63 C39.4440454,63 39,62.5573397 39,62.0010434 L39,60.9989566 Z M14.0016723,40 C13.448464,40 13,39.5476379 13,39.0072136 L13,8.99278641 C13,8.44448561 13.4498156,8 14.0016723,8 L55.9983277,8 C56.551536,8 57,8.45236206 57,8.99278641 L57,39.0072136 C57,39.5555144 56.5501844,40 55.9983277,40 L14.0016723,40 Z M11,49 C11,48.4477153 11.4537918,48 12.0009977,48 L58.9990023,48 C59.551838,48 60,48.4438648 60,49 C60,49.5522847 59.5462082,50 58.9990023,50 L12.0009977,50 C11.448162,50 11,49.5561352 11,49 Z M0,95 C0,93.3431458 1.33583665,92 3.0078125,92 L66.9921875,92 C68.6533565,92 70,93.3465171 70,95 L70,98 L0,98 L0,95 Z" fill-opacity="0.8" fill="#000000"></path>
                        <g transform="translate(19.000000, 14.000000)">
                            <rect fill="#275FB3" x="0" y="0" width="18" height="2"></rect>
                            <rect fill="#D1D1D1" x="0" y="12" width="18" height="2"></rect>
                            <rect fill="#D1D1D1" x="0" y="4" width="32" height="2"></rect>
                            <rect fill="#D1D1D1" x="0" y="8" width="32" height="2"></rect>
                        </g>
                    </g>
                </g>
                <g transform="translate(16.000000, 71.000000)">
                    <rect fill="#828282" x="0" y="0" width="88" height="20"></rect>
                    <text font-family="Roboto" font-size="12" font-weight="420" fill="#FFFFFF">
                        <tspan x="8.22753906" y="14">НЕЗАБАРОМ</tspan>
                    </text>
                </g>
            </g>
        </g>
    </g>
</svg>