<?xml version="1.0" encoding="UTF-8" standalone="no"?>
<svg width="16px" height="16px" viewBox="0 0 16 16" version="1.1" xmlns="http://www.w3.org/2000/svg" xmlns:xlink="http://www.w3.org/1999/xlink" xmlns:sketch="http://www.bohemiancoding.com/sketch/ns">
    <!-- Generator: Sketch 3.3.3 (12081) - http://www.bohemiancoding.com/sketch -->
    <title>ico_check_0</title>
    <desc>Created with Sketch.</desc>
    <defs></defs>
    <g id="ui-kit" stroke="none" stroke-width="1" fill="none" fill-rule="evenodd" sketch:type="MSPage">
        <g id="ui_webkit" sketch:type="MSArtboardGroup" transform="translate(-988.000000, -171.000000)" fill-opacity="0.3" fill="#000000">
            <g id="field_1-copy-2" sketch:type="MSLayerGroup" transform="translate(988.000000, 152.000000)">
                <g id="Запам'ятати-мене-+-Check-Background-Copy-+-Rectangle-34-Copy" transform="translate(0.000000, 19.000000)" sketch:type="MSShapeGroup">
                    <g id="ico_check_0">
                        <path d="M1.99406028,2 L1.99406028,2 C1.99821242,2 2,1.99821134 2,1.99406028 L2,14.0059397 C2,14.0017876 1.99821134,14 1.99406028,14 L14.0059397,14 C14.0017876,14 14,14.0017887 14,14.0059397 L14,1.99406028 C14,1.99821242 14.0017887,2 14.0059397,2 L1.99406028,2 Z M1.99406028,0 L1.99406028,0 L14.0059397,0 C15.1054862,0 16,0.892771196 16,1.99406028 L16,14.0059397 C16,15.1054862 15.1072288,16 14.0059397,16 L1.99406028,16 C0.894513756,16 0,15.1072288 0,14.0059397 L0,1.99406028 C0,0.894513756 0.892771196,0 1.99406028,0 L1.99406028,0 Z" id="Shape"></path>
                    </g>
                </g>
            </g>
        </g>
    </g>
</svg>