<?xml version="1.0" encoding="UTF-8" standalone="no"?>
<svg width="120px" height="120px" viewBox="0 0 120 120" version="1.1" xmlns="http://www.w3.org/2000/svg" xmlns:xlink="http://www.w3.org/1999/xlink" xmlns:sketch="http://www.bohemiancoding.com/sketch/ns">
    <!-- Generator: Sketch 3.3.2 (12043) - http://www.bohemiancoding.com/sketch -->
    <title>ico_sms_hover</title>
    <desc>Created with Sketch.</desc>
    <defs></defs>
    <g id="ui-kit" stroke="none" stroke-width="1" fill="none" fill-rule="evenodd" sketch:type="MSPage">
        <g id="ui_webkit" sketch:type="MSArtboardGroup" transform="translate(-384.000000, -720.000000)">
            <g id="ico_sms_hover" sketch:type="MSLayerGroup" transform="translate(384.000000, 720.000000)">
                <rect id="bounds-copy-2" sketch:type="MSShapeGroup" x="0" y="0" width="120" height="120"></rect>
                <g id="Rectangle-320-+-Group" transform="translate(30.000000, 18.000000)" sketch:type="MSShapeGroup">
                    <path d="M29,4 L25.0024733,4 C24.455761,4 24,4.44771525 24,5 C24,5.55613518 24.4488226,6 25.0024733,6 L29,6 L29,4 L29,4 Z M31,4 L34.9975267,4 C35.5511774,4 36,4.44386482 36,5 C36,5.55228475 35.544239,6 34.9975267,6 L31,6 L31,4 Z M0,3.99498437 C0,1.78861542 1.79568082,0 4.0065556,0 L55.9934444,0 C58.206204,0 60,1.79332068 60,3.99498437 L60,80.0050156 C60,82.2113846 58.2043192,84 55.9934444,84 L4.0065556,84 C1.79379604,84 0,82.2066793 0,80.0050156 L0,3.99498437 Z M5,11.0097361 C5,10.4520742 5.44752574,10 5.99876896,10 L54.001231,10 C54.5528359,10 55,10.4425293 55,11.0097361 L55,43.9902639 C55,44.5479258 54.5524743,45 54.001231,45 L5.99876896,45 C5.44716409,45 5,44.5574707 5,43.9902639 L5,11.0097361 Z M27,47.990778 C27,47.4435864 27.4509752,47 27.990778,47 L32.009222,47 C32.5564136,47 33,47.4509752 33,47.990778 L33,52.009222 C33,52.5564136 32.5490248,53 32.009222,53 L27.990778,53 C27.4435864,53 27,52.5490248 27,52.009222 L27,47.990778 Z M7,57.0093689 C7,56.4519098 7.44335318,56 8.0093689,56 L9.9906311,56 C10.5480902,56 11,56.4433532 11,57.0093689 L11,58.9906311 C11,59.5480902 10.5566468,60 9.9906311,60 L8.0093689,60 C7.45190985,60 7,59.5566468 7,58.9906311 L7,57.0093689 Z M13,57.0093689 C13,56.4519098 13.4433532,56 14.0093689,56 L15.9906311,56 C16.5480902,56 17,56.4433532 17,57.0093689 L17,58.9906311 C17,59.5480902 16.5566468,60 15.9906311,60 L14.0093689,60 C13.4519098,60 13,59.5566468 13,58.9906311 L13,57.0093689 Z M19,57.0093689 C19,56.4519098 19.4433532,56 20.0093689,56 L21.9906311,56 C22.5480902,56 23,56.4433532 23,57.0093689 L23,58.9906311 C23,59.5480902 22.5566468,60 21.9906311,60 L20.0093689,60 C19.4519098,60 19,59.5566468 19,58.9906311 L19,57.0093689 Z M25,57.0093689 C25,56.4519098 25.4433532,56 26.0093689,56 L27.9906311,56 C28.5480902,56 29,56.4433532 29,57.0093689 L29,58.9906311 C29,59.5480902 28.5566468,60 27.9906311,60 L26.0093689,60 C25.4519098,60 25,59.5566468 25,58.9906311 L25,57.0093689 Z M31,57.0093689 C31,56.4519098 31.4433532,56 32.0093689,56 L33.9906311,56 C34.5480902,56 35,56.4433532 35,57.0093689 L35,58.9906311 C35,59.5480902 34.5566468,60 33.9906311,60 L32.0093689,60 C31.4519098,60 31,59.5566468 31,58.9906311 L31,57.0093689 Z M37,57.0093689 C37,56.4519098 37.4433532,56 38.0093689,56 L39.9906311,56 C40.5480902,56 41,56.4433532 41,57.0093689 L41,58.9906311 C41,59.5480902 40.5566468,60 39.9906311,60 L38.0093689,60 C37.4519098,60 37,59.5566468 37,58.9906311 L37,57.0093689 Z M43,57.0093689 C43,56.4519098 43.4433532,56 44.0093689,56 L45.9906311,56 C46.5480902,56 47,56.4433532 47,57.0093689 L47,58.9906311 C47,59.5480902 46.5566468,60 45.9906311,60 L44.0093689,60 C43.4519098,60 43,59.5566468 43,58.9906311 L43,57.0093689 Z M49,57.0093689 C49,56.4519098 49.4433532,56 50.0093689,56 L51.9906311,56 C52.5480902,56 53,56.4433532 53,57.0093689 L53,58.9906311 C53,59.5480902 52.5566468,60 51.9906311,60 L50.0093689,60 C49.4519098,60 49,59.5566468 49,58.9906311 L49,57.0093689 Z M7,63.0093689 C7,62.4519098 7.44335318,62 8.0093689,62 L9.9906311,62 C10.5480902,62 11,62.4433532 11,63.0093689 L11,64.9906311 C11,65.5480902 10.5566468,66 9.9906311,66 L8.0093689,66 C7.45190985,66 7,65.5566468 7,64.9906311 L7,63.0093689 Z M13,63.0093689 C13,62.4519098 13.4433532,62 14.0093689,62 L15.9906311,62 C16.5480902,62 17,62.4433532 17,63.0093689 L17,64.9906311 C17,65.5480902 16.5566468,66 15.9906311,66 L14.0093689,66 C13.4519098,66 13,65.5566468 13,64.9906311 L13,63.0093689 Z M19,63.0093689 C19,62.4519098 19.4433532,62 20.0093689,62 L21.9906311,62 C22.5480902,62 23,62.4433532 23,63.0093689 L23,64.9906311 C23,65.5480902 22.5566468,66 21.9906311,66 L20.0093689,66 C19.4519098,66 19,65.5566468 19,64.9906311 L19,63.0093689 Z M25,63.0093689 C25,62.4519098 25.4433532,62 26.0093689,62 L27.9906311,62 C28.5480902,62 29,62.4433532 29,63.0093689 L29,64.9906311 C29,65.5480902 28.5566468,66 27.9906311,66 L26.0093689,66 C25.4519098,66 25,65.5566468 25,64.9906311 L25,63.0093689 Z M31,63.0093689 C31,62.4519098 31.4433532,62 32.0093689,62 L33.9906311,62 C34.5480902,62 35,62.4433532 35,63.0093689 L35,64.9906311 C35,65.5480902 34.5566468,66 33.9906311,66 L32.0093689,66 C31.4519098,66 31,65.5566468 31,64.9906311 L31,63.0093689 Z M37,63.0093689 C37,62.4519098 37.4433532,62 38.0093689,62 L39.9906311,62 C40.5480902,62 41,62.4433532 41,63.0093689 L41,64.9906311 C41,65.5480902 40.5566468,66 39.9906311,66 L38.0093689,66 C37.4519098,66 37,65.5566468 37,64.9906311 L37,63.0093689 Z M43,63.0093689 C43,62.4519098 43.4433532,62 44.0093689,62 L45.9906311,62 C46.5480902,62 47,62.4433532 47,63.0093689 L47,64.9906311 C47,65.5480902 46.5566468,66 45.9906311,66 L44.0093689,66 C43.4519098,66 43,65.5566468 43,64.9906311 L43,63.0093689 Z M49,63.0093689 C49,62.4519098 49.4433532,62 50.0093689,62 L51.9906311,62 C52.5480902,62 53,62.4433532 53,63.0093689 L53,64.9906311 C53,65.5480902 52.5566468,66 51.9906311,66 L50.0093689,66 C49.4519098,66 49,65.5566468 49,64.9906311 L49,63.0093689 Z M7,69.0093689 C7,68.4519098 7.44335318,68 8.0093689,68 L9.9906311,68 C10.5480902,68 11,68.4433532 11,69.0093689 L11,70.9906311 C11,71.5480902 10.5566468,72 9.9906311,72 L8.0093689,72 C7.45190985,72 7,71.5566468 7,70.9906311 L7,69.0093689 Z M13,69.0093689 C13,68.4519098 13.4433532,68 14.0093689,68 L15.9906311,68 C16.5480902,68 17,68.4433532 17,69.0093689 L17,70.9906311 C17,71.5480902 16.5566468,72 15.9906311,72 L14.0093689,72 C13.4519098,72 13,71.5566468 13,70.9906311 L13,69.0093689 Z M19,69.0093689 C19,68.4519098 19.4433532,68 20.0093689,68 L21.9906311,68 C22.5480902,68 23,68.4433532 23,69.0093689 L23,70.9906311 C23,71.5480902 22.5566468,72 21.9906311,72 L20.0093689,72 C19.4519098,72 19,71.5566468 19,70.9906311 L19,69.0093689 Z M25,69.0093689 C25,68.4519098 25.4433532,68 26.0093689,68 L27.9906311,68 C28.5480902,68 29,68.4433532 29,69.0093689 L29,70.9906311 C29,71.5480902 28.5566468,72 27.9906311,72 L26.0093689,72 C25.4519098,72 25,71.5566468 25,70.9906311 L25,69.0093689 Z M31,69.0093689 C31,68.4519098 31.4433532,68 32.0093689,68 L33.9906311,68 C34.5480902,68 35,68.4433532 35,69.0093689 L35,70.9906311 C35,71.5480902 34.5566468,72 33.9906311,72 L32.0093689,72 C31.4519098,72 31,71.5566468 31,70.9906311 L31,69.0093689 Z M37,69.0093689 C37,68.4519098 37.4433532,68 38.0093689,68 L39.9906311,68 C40.5480902,68 41,68.4433532 41,69.0093689 L41,70.9906311 C41,71.5480902 40.5566468,72 39.9906311,72 L38.0093689,72 C37.4519098,72 37,71.5566468 37,70.9906311 L37,69.0093689 Z M43,69.0093689 C43,68.4519098 43.4433532,68 44.0093689,68 L45.9906311,68 C46.5480902,68 47,68.4433532 47,69.0093689 L47,70.9906311 C47,71.5480902 46.5566468,72 45.9906311,72 L44.0093689,72 C43.4519098,72 43,71.5566468 43,70.9906311 L43,69.0093689 Z M49,69.0093689 C49,68.4519098 49.4433532,68 50.0093689,68 L51.9906311,68 C52.5480902,68 53,68.4433532 53,69.0093689 L53,70.9906311 C53,71.5480902 52.5566468,72 51.9906311,72 L50.0093689,72 C49.4519098,72 49,71.5566468 49,70.9906311 L49,69.0093689 Z M13,75.0093689 C13,74.4519098 13.4433532,74 14.0093689,74 L15.9906311,74 C16.5480902,74 17,74.4433532 17,75.0093689 L17,76.9906311 C17,77.5480902 16.5566468,78 15.9906311,78 L14.0093689,78 C13.4519098,78 13,77.5566468 13,76.9906311 L13,75.0093689 Z M19,75.0093689 C19,74.4519098 19.4433532,74 20.0093689,74 L21.9906311,74 C22.5480902,74 23,74.4433532 23,75.0093689 L23,76.9906311 C23,77.5480902 22.5566468,78 21.9906311,78 L20.0093689,78 C19.4519098,78 19,77.5566468 19,76.9906311 L19,75.0093689 Z M37,75.0093689 C37,74.4519098 37.4433532,74 38.0093689,74 L39.9906311,74 C40.5480902,74 41,74.4433532 41,75.0093689 L41,76.9906311 C41,77.5480902 40.5566468,78 39.9906311,78 L38.0093689,78 C37.4519098,78 37,77.5566468 37,76.9906311 L37,75.0093689 Z M43,75.0093689 C43,74.4519098 43.4433532,74 44.0093689,74 L45.9906311,74 C46.5480902,74 47,74.4433532 47,75.0093689 L47,76.9906311 C47,77.5480902 46.5566468,78 45.9906311,78 L44.0093689,78 C43.4519098,78 43,77.5566468 43,76.9906311 L43,75.0093689 Z M25,75.0093689 C25,74.4519098 25.4556644,74 25.9953976,74 L34.0046024,74 C34.5543453,74 35,74.4433532 35,75.0093689 L35,76.9906311 C35,77.5480902 34.5443356,78 34.0046024,78 L25.9953976,78 C25.4456547,78 25,77.5566468 25,76.9906311 L25,75.0093689 Z" id="Rectangle-320" fill="#275FB3"></path>
                    <rect id="Rectangle-321" fill="#FFFFFF" x="5" y="10" width="50" height="35" rx="1"></rect>
                    <g id="Group" transform="translate(11.000000, 17.000000)">
                        <rect id="Rectangle-328" fill="#FF5722" x="0" y="0" width="18" height="2"></rect>
                        <rect id="Rectangle-328-Copy-3" fill="#D1D1D1" x="0" y="12" width="18" height="2"></rect>
                        <rect id="Rectangle-328-Copy" fill="#D1D1D1" x="0" y="4" width="38" height="2"></rect>
                        <rect id="Rectangle-328-Copy-2" fill="#D1D1D1" x="0" y="8" width="38" height="2"></rect>
                    </g>
                </g>
            </g>
        </g>
    </g>
</svg>