<?xml version="1.0" encoding="UTF-8" standalone="no"?>
<svg width="120px" height="120px" viewBox="0 0 120 120" version="1.1" xmlns="http://www.w3.org/2000/svg" xmlns:xlink="http://www.w3.org/1999/xlink" xmlns:sketch="http://www.bohemiancoding.com/sketch/ns">
    <!-- Generator: Sketch 3.3.2 (12043) - http://www.bohemiancoding.com/sketch -->
    <title>ico_web_hover</title>
    <desc>Created with Sketch.</desc>
    <defs>
        <path id="path-1" d="M2.00708607,50 C0.898603043,50 0,49.1109357 0,48.0090859 L0,1.99091407 C0,0.891362589 0.895736081,0 2.00708607,0 L89.991798,0 C91.1002811,0 91.9988841,0.889064278 91.9988841,1.99091407 L91.9988841,48.0090859 C91.9988841,49.1086374 91.103148,50 89.991798,50 L2.00708607,50 Z"></path>
    </defs>
    <g id="ui-kit" stroke="none" stroke-width="1" fill="none" fill-rule="evenodd" sketch:type="MSPage">
        <g id="ui_webkit" sketch:type="MSArtboardGroup" transform="translate(-256.000000, -720.000000)">
            <g id="ico_web_hover" sketch:type="MSLayerGroup" transform="translate(256.000000, 720.000000)">
                <rect id="bounds-copy" sketch:type="MSShapeGroup" x="0" y="0" width="120" height="120"></rect>
                <g id="web" transform="translate(11.000000, 24.000000)">
                    <path d="M0,3.99941455 C0,1.79059889 1.78463051,0 3.9937032,0 L94.0062968,0 C96.2119582,0 98,1.79774843 98,3.99941455 L98,68.0005854 C98,70.2094011 96.2153695,72 94.0062968,72 L3.9937032,72 C1.78804183,72 0,70.2022516 0,68.0005854 L0,3.99941455 Z M10,6 C11.6563826,6 13,7.34301877 13,9 C13,10.6569812 11.6571539,12 10,12 C8.34361743,12 7,10.6569812 7,9 C7,7.34301877 8.34361743,6 10,6 Z M18,6 C19.6563826,6 21,7.34301877 21,9 C21,10.6569812 19.6571539,12 18,12 C16.3436174,12 15,10.6569812 15,9 C15,7.34301877 16.3436174,6 18,6 Z M26,6 C27.6563826,6 29,7.34301877 29,9 C29,10.6569812 27.6571539,12 26,12 C24.3436174,12 23,10.6569812 23,9 C23,7.34301877 24.3436174,6 26,6 Z M5.00711042,67 C3.89861394,67 3,66.1109357 3,65.0090859 L3,18.9909141 C3,17.8913626 3.89574695,17 5.00711042,17 L92.9928896,17 C94.1013861,17 95,17.8890643 95,18.9909141 L95,65.0090859 C95,66.1086374 94.1042531,67 92.9928896,67 L5.00711042,67 Z" id="Rectangle-91" fill="#275FB3" sketch:type="MSShapeGroup"></path>
                    <g id="map" transform="translate(3.000000, 17.000000)">
                        <mask id="mask-2" sketch:name="Mask" fill="white">
                            <use xlink:href="#path-1"></use>
                        </mask>
                        <use id="Mask" fill="#FFFFFF" sketch:type="MSShapeGroup" xlink:href="#path-1"></use>
                        <g id="Group" mask="url(#mask-2)" sketch:type="MSShapeGroup">
                            <g transform="translate(2.000000, -8.000000)">
                                <path d="M45.7744141,0.535644531 L45.7744141,23.5538601 L51.1869388,28.9663849 L51.1869388,52.3467106 L62.6103914,63.7701632" id="Path-917" stroke="#E6E6E6" stroke-width="3"></path>
                                <path d="M39.315918,1.07128906 L39.315918,21.0508052" id="Path-908" stroke="#CCCCCC" stroke-width="1"></path>
                                <path d="M0.718261719,27.2333984 L34.3619313,27.2333984 L45.2167969,34.4858398 L45.2456055,38.7988281 L48.5241333,42.0773559 L88.6187711,42.0773559" id="Path-908" stroke="#CCCCCC" stroke-width="1"></path>
                                <path d="M23.5820313,12.9599609 L33.5129479,12.9599609 L35.5129479,21.5132225 L42.2128796,21.5132225 L49.2725997,14.4535025 L55.1407684,14.4535025 L64.2973633,25.0092773" id="Path-909" stroke="#CCCCCC" stroke-width="1"></path>
                                <path d="M8.65673828,5.34619141 L23.4873047,12.5268555 L23.4873047,35.3148584 L34.9599661,44.7875199 L53.1480298,62.9755835" id="Path-910" stroke="#CCCCCC" stroke-width="1"></path>
                                <path d="M78.5478516,15.4165039 L12.3730469,60.8925781" id="Path-911" stroke="#CCCCCC" stroke-width="1"></path>
                                <path d="M23.5800781,22.7143555 L34.2211914,24.4614258 L39.2915039,27.5493164 L39.2915039,30.3680096" id="Path-912" stroke="#CCCCCC" stroke-width="1"></path>
                                <path d="M38.9189453,30.3730469 L0.715332031,41.7451172" id="Path-913" stroke="#CCCCCC" stroke-width="1"></path>
                                <path d="M54.1337891,31.8354492 L54.1337891,42.3729973" id="Path-914" stroke="#CCCCCC" stroke-width="1"></path>
                                <path d="M57.2294922,30.3920898 L69.0589514,42.2215491" id="Path-915" stroke="#CCCCCC" stroke-width="1"></path>
                                <path d="M35.4746094,21.5473633 L48.5722656,31.359375 L48.5722656,48.4388487 L42.7285156,65.6889648" id="Path-916" stroke="#CCCCCC" stroke-width="1"></path>
                            </g>
                        </g>
                        <circle id="Oval-320" fill="#FF5722" sketch:type="MSShapeGroup" mask="url(#mask-2)" cx="81" cy="39" r="5"></circle>
                    </g>
                </g>
            </g>
        </g>
    </g>
</svg>