<?xml version="1.0" encoding="UTF-8" standalone="no"?>
<svg width="120px" height="56px" viewBox="0 0 120 56" version="1.1" xmlns="http://www.w3.org/2000/svg" xmlns:xlink="http://www.w3.org/1999/xlink" xmlns:sketch="http://www.bohemiancoding.com/sketch/ns">
    <!-- Generator: Sketch 3.3.2 (12043) - http://www.bohemiancoding.com/sketch -->
    <title>logo_horizont_color</title>
    <desc>Created with Sketch.</desc>
    <defs>
        <path d="M27.6416975,46.2668013 C37.9919506,44.0409289 45.7588256,34.7071569 45.7588256,23.5307263 C45.7588256,10.6955053 35.5153635,0.290502793 22.8794128,0.290502793 C10.243462,0.290502793 0,10.6955053 0,23.5307263 C0,34.7071569 7.76687493,44.0409289 18.1171281,46.2668013 L22.8794128,52 L27.6416975,46.2668013 L27.6416975,46.2668013 Z M22.8794128,42.7039106 C33.3040722,42.7039106 41.7549283,34.1197836 41.7549283,23.5307263 C41.7549283,12.9416689 33.3040722,4.3575419 22.8794128,4.3575419 C12.4547534,4.3575419 4.00389724,12.9416689 4.00389724,23.5307263 C4.00389724,34.1197836 12.4547534,42.7039106 22.8794128,42.7039106 Z" id="path-1"></path>
    </defs>
    <g id="ui-kit" stroke="none" stroke-width="1" fill="none" fill-rule="evenodd" sketch:type="MSPage">
        <g id="ui_webkit" sketch:type="MSArtboardGroup" transform="translate(-288.000000, -464.000000)">
            <g id="logo_horizont_color" sketch:type="MSLayerGroup" transform="translate(288.000000, 464.000000)">
                <g id="label_2-copy-3-+-P-Copy" transform="translate(1.000000, 2.000000)">
                    <g id="label_2-copy-3">
                        <use fill="#275FB3" fill-rule="evenodd" sketch:type="MSShapeGroup" xlink:href="#path-1"></use>
                        <use fill="none" xlink:href="#path-1"></use>
                    </g>
                    <path d="M20.0042135,26.5155626 L20.0042135,35.150838 L16.0155889,35.150838 L16.0155889,11.9106145 L24.7968692,11.9106145 C26.1316725,11.9106145 27.3166868,12.0941721 28.3519476,12.4612929 C29.3872084,12.8284136 30.2621747,13.3418429 30.9768725,14.0015962 C31.6915703,14.6613494 32.2354682,15.4434645 32.6085825,16.3479649 C32.9816969,17.2524653 33.1682512,18.2367598 33.1682512,19.3008779 C33.1682512,20.4288431 32.9816969,21.4397401 32.6085825,22.3335994 C32.2354682,23.2274586 31.6915703,23.9829711 30.9768725,24.6001596 C30.2621747,25.2173481 29.3872084,25.6908736 28.3519476,26.0207502 C27.3166868,26.3506268 26.1316725,26.5155626 24.7968692,26.5155626 L20.0042135,26.5155626 Z M20.0042135,23.2753392 L24.7968692,23.2753392 C25.5641183,23.2753392 26.2236274,23.17957 26.7754161,22.9880287 C27.3272049,22.7964875 27.7817669,22.5251414 28.1391159,22.1739824 C28.4964648,21.8228235 28.7565899,21.4051634 28.9194989,20.9209896 C29.082408,20.4368159 29.1638613,19.9074251 29.1638613,19.3328013 C29.1638613,18.790101 29.082408,18.268691 28.9194989,17.7685555 C28.7565899,17.26842 28.4964648,16.8241573 28.1391159,16.4357542 C27.7817669,16.0473511 27.3272049,15.7387615 26.7754161,15.5099761 C26.2236274,15.2811907 25.5641183,15.1667997 24.7968692,15.1667997 L20.0042135,15.1667997 L20.0042135,23.2753392 Z" id="P-Copy" fill="#275FB3" sketch:type="MSShapeGroup"></path>
                </g>
                <g id="MOBILE-Copy-+-MOBILE-Copy-2" transform="translate(56.465243, 14.180180)" fill-opacity="0.8" fill="#000000" sketch:type="MSShapeGroup">
                    <path d="M1.82259798,0.513671566 L4.82452406,8.14169433 L7.82645015,0.513671566 L9.39678543,0.513671566 L9.39678543,9.86249407 L8.18592449,9.86249407 L8.18592449,6.22184685 L8.2994427,2.29225936 L5.28490348,9.86249407 L4.35783807,9.86249407 L1.34960542,2.31152205 L1.4694302,6.22184685 L1.4694302,9.86249407 L0.258569263,9.86249407 L0.258569263,0.513671566 L1.82259798,0.513671566 Z M19.3156145,5.48986486 C19.3156145,6.19188618 19.2283745,6.82005742 19.053892,7.37439742 C18.8794094,7.92873743 18.6324046,8.40066846 18.3128703,8.79020468 C17.9933359,9.1797409 17.606537,9.47723937 17.1524619,9.68270902 C16.6983868,9.88817868 16.1917642,9.99091196 15.6325791,9.99091196 C15.0902116,9.99091196 14.5919978,9.88817868 14.1379227,9.68270902 C13.6838475,9.47723937 13.2928443,9.1797409 12.9649011,8.79020468 C12.636958,8.40066846 12.3825956,7.92873743 12.2018065,7.37439742 C12.0210173,6.82005742 11.9306241,6.19188618 11.9306241,5.48986486 L11.9306241,4.89914256 C11.9306241,4.20140186 12.0210173,3.57323063 12.2018065,3.01461 C12.3825956,2.45598938 12.6348558,1.98191807 12.9585946,1.59238186 C13.2823333,1.20284564 13.6712344,0.904277025 14.1253095,0.696667062 C14.5793846,0.489057099 15.0775985,0.385253675 15.619966,0.385253675 C16.1791511,0.385253675 16.6868247,0.489057099 17.143002,0.696667062 C17.5991794,0.904277025 17.9880805,1.20284564 18.309717,1.59238186 C18.6313535,1.98191807 18.8794094,2.45598938 19.053892,3.01461 C19.2283745,3.57323063 19.3156145,4.20140186 19.3156145,4.89914256 L19.3156145,5.48986486 Z M18.1110601,4.88630077 C18.1110601,4.32982046 18.0553527,3.8375568 17.9439361,3.40949502 C17.8325195,2.98143324 17.6696015,2.62186674 17.4551771,2.33078473 C17.2407528,2.03970272 16.9790328,1.81925421 16.6700095,1.66943259 C16.3609861,1.51961097 16.0109751,1.44470128 15.619966,1.44470128 C15.2457745,1.44470128 14.9052232,1.51961097 14.5983021,1.66943259 C14.2913809,1.81925421 14.029661,2.03970272 13.8131344,2.33078473 C13.5966079,2.62186674 13.4294855,2.98143324 13.3117623,3.40949502 C13.1940392,3.8375568 13.1351784,4.32982046 13.1351784,4.88630077 L13.1351784,5.48986486 C13.1351784,6.0506258 13.1950902,6.54502973 13.3149156,6.97309151 C13.434741,7.40115329 13.6039655,7.76178993 13.8225943,8.05501225 C14.0412231,8.34823457 14.3039941,8.56975322 14.6109152,8.71957484 C14.9178364,8.86939646 15.2583876,8.94430615 15.6325791,8.94430615 C16.0277927,8.94430615 16.3788547,8.86939646 16.6857759,8.71957484 C16.992697,8.56975322 17.2523148,8.34823457 17.464637,8.05501225 C17.6769591,7.76178993 17.837775,7.40115329 17.9470894,6.97309151 C18.0564038,6.54502973 18.1110601,6.0506258 18.1110601,5.48986486 L18.1110601,4.88630077 Z M21.8494531,9.86249407 L21.8494531,0.513671566 L24.8513792,0.513671566 C25.3222719,0.513671566 25.7427056,0.561827794 26.1126927,0.658141694 C26.4826798,0.754455595 26.796954,0.90427497 27.0555245,1.10760431 C27.3140951,1.31093366 27.5116989,1.56883701 27.6483419,1.88132211 C27.7849848,2.19380721 27.8533053,2.56835565 27.8533053,3.00497866 C27.8533053,3.44160168 27.7313796,3.82792164 27.4875244,4.16395013 C27.2436692,4.49997863 26.9115267,4.76002226 26.4910867,4.94408883 C26.7475551,5.01685933 26.9756403,5.12387317 27.1753493,5.26513355 C27.3750583,5.40639394 27.5432317,5.57333553 27.6798747,5.76596333 C27.8165177,5.95859113 27.920575,6.17475909 27.9920498,6.41447368 C28.0635246,6.65418828 28.0992614,6.90460066 28.0992614,7.16571835 C28.0992614,7.60234136 28.0267366,7.98866132 27.8816849,8.32468982 C27.7366331,8.66071832 27.5316717,8.94323485 27.2667945,9.17224791 C27.0019174,9.40126096 26.6823878,9.57355324 26.3081963,9.68912992 C25.9340048,9.8047066 25.5177755,9.86249407 25.0594959,9.86249407 L21.8494531,9.86249407 Z M23.0603141,5.48986486 L23.0603141,8.85441362 L25.0594959,8.85441362 C25.3495995,8.85441362 25.6071151,8.8148185 25.8320505,8.73562707 C26.0569858,8.65643565 26.247232,8.54514125 26.4027948,8.40174056 C26.5583576,8.25833986 26.6771301,8.08283716 26.7591159,7.8752272 C26.8411016,7.66761724 26.8820939,7.43539721 26.8820939,7.17856014 C26.8820939,6.92172307 26.8484592,6.6884329 26.7811888,6.47868263 C26.7139185,6.26893236 26.607759,6.09128938 26.4627072,5.94574838 C26.3176554,5.80020738 26.1337157,5.68784284 25.9108825,5.60865141 C25.6880494,5.52945999 25.4231762,5.48986486 25.1162551,5.48986486 L23.0603141,5.48986486 Z M23.0603141,4.5010471 L24.8892186,4.5010471 C25.1498914,4.5010471 25.3874364,4.46680267 25.6018607,4.39831279 C25.8162851,4.3298229 26.0002248,4.23137017 26.1536854,4.10295164 C26.307146,3.9745331 26.4259185,3.81722276 26.5100064,3.63101588 C26.5940944,3.44480901 26.6361378,3.23399175 26.6361378,2.99855777 C26.6361378,2.48488363 26.488986,2.11140533 26.1946781,1.87811166 C25.9003701,1.64481799 25.4526083,1.52817291 24.8513792,1.52817291 L23.0603141,1.52817291 L23.0603141,4.5010471 Z M31.9070267,9.86249407 L30.6961658,9.86249407 L30.6961658,0.513671566 L31.9070267,0.513671566 L31.9070267,9.86249407 Z M36.0553466,8.85441362 L40.4068781,8.85441362 L40.4068781,9.86249407 L34.8381791,9.86249407 L34.8381791,0.513671566 L36.0553466,0.513671566 L36.0553466,8.85441362 Z M47.6958686,5.54123202 L43.7164245,5.54123202 L43.7164245,8.85441362 L48.3391384,8.85441362 L48.3391384,9.86249407 L42.5055636,9.86249407 L42.5055636,0.513671566 L48.2760728,0.513671566 L48.2760728,1.52817291 L43.7164245,1.52817291 L43.7164245,4.53315157 L47.6958686,4.53315157 L47.6958686,5.54123202 Z M1.90458336,19.7185673 L1.90458336,23.0124862 L0.0126131348,23.0124862 L0.0126131348,13.6636637 L3.59474342,13.6636637 C4.13711093,13.6636637 4.62166068,13.7407136 5.04840721,13.8948159 C5.47515373,14.0489181 5.83672665,14.2640159 6.1331368,14.5401158 C6.42954695,14.8162156 6.65553002,15.143678 6.81109279,15.5225126 C6.96665557,15.9013473 7.04443579,16.3133506 7.04443579,16.7585349 C7.04443579,17.2122803 6.96665557,17.6210732 6.81109279,17.9849257 C6.65553002,18.3487782 6.42954695,18.6591184 6.1331368,18.9159554 C5.83672665,19.1727925 5.47515373,19.3707681 5.04840721,19.5098882 C4.62166068,19.6490083 4.13711093,19.7185673 3.59474342,19.7185673 L1.90458336,19.7185673 Z M1.90458336,18.1582899 L3.59474342,18.1582899 C3.86382497,18.1582899 4.09611455,18.1240454 4.29161912,18.0555556 C4.48712368,17.9870657 4.64688846,17.8918234 4.77091824,17.7698257 C4.89494802,17.6478281 4.98639233,17.5012192 5.04525392,17.3299945 C5.10411551,17.1587698 5.13354587,16.9725657 5.13354587,16.7713766 C5.13354587,16.5701876 5.10411551,16.3764926 5.04525392,16.1902857 C4.98639233,16.0040788 4.89494802,15.8392775 4.77091824,15.6958768 C4.64688846,15.5524761 4.48712368,15.4379713 4.29161912,15.3523589 C4.09611455,15.2667466 3.86382497,15.223941 3.59474342,15.223941 L1.90458336,15.223941 L1.90458336,18.1582899 Z M13.0428378,21.0862178 L9.72558339,21.0862178 L9.09492665,23.0124862 L7.08313164,23.0124862 L10.5012912,13.6636637 L12.2545169,13.6636637 L15.6915961,23.0124862 L13.6798011,23.0124862 L13.0428378,21.0862178 Z M10.2364153,19.5259404 L12.5320059,19.5259404 L11.377904,16.0265529 L10.2364153,19.5259404 Z M20.5863489,19.5901494 L19.0790793,19.5901494 L19.0790793,23.0124862 L17.1871091,23.0124862 L17.1871091,13.6636637 L20.598962,13.6636637 C21.1287163,13.6636637 21.6038063,13.7246616 22.0242463,13.8466592 C22.4446862,13.9686568 22.7999526,14.14844 23.0900562,14.3860143 C23.3801597,14.6235886 23.6029895,14.9178766 23.7585523,15.2688873 C23.9141151,15.619898 23.9918953,16.0265506 23.9918953,16.4888573 C23.9918953,16.8313067 23.9540563,17.1384364 23.8783771,17.4102557 C23.8026979,17.6820749 23.6933852,17.9239262 23.5504356,18.1358167 C23.407486,18.3477073 23.2351082,18.5328413 23.0332971,18.6912241 C22.8314859,18.849607 22.6044517,18.9865847 22.3521878,19.1021614 L24.3387565,22.9225936 L24.3387565,23.0124862 L22.3080418,23.0124862 L20.5863489,19.5901494 Z M19.0790793,18.029872 L20.6052686,18.029872 C20.8533282,18.029872 21.0709026,17.9966977 21.2579983,17.9303481 C21.4450941,17.8639985 21.6006545,17.7698264 21.7246843,17.6478287 C21.8487141,17.5258311 21.9422606,17.3802923 22.0053266,17.2112079 C22.0683926,17.0421235 22.0999251,16.852709 22.0999251,16.6429587 C22.0999251,16.2020551 21.9769482,15.8553303 21.7309909,15.6027738 C21.4850335,15.3502174 21.1076944,15.223941 20.598962,15.223941 L19.0790793,15.223941 L19.0790793,18.029872 Z M28.9434072,19.2626837 L27.9595826,20.341394 L27.9595826,23.0124862 L26.0676124,23.0124862 L26.0676124,13.6636637 L27.9595826,13.6636637 L27.9595826,17.9014541 L28.7920495,16.7392722 L31.1317861,13.6636637 L33.4589094,13.6636637 L30.1984141,17.8179825 L33.5535079,23.0124862 L31.3020634,23.0124862 L28.9434072,19.2626837 Z M36.9157648,23.0124862 L35.0237946,23.0124862 L35.0237946,13.6636637 L36.9157648,13.6636637 L36.9157648,23.0124862 Z M46.7737861,23.0124862 L44.8818159,23.0124862 L41.1987805,16.8612692 L41.1987805,23.0124862 L39.3068103,23.0124862 L39.3068103,13.6636637 L41.1987805,13.6636637 L44.8881225,19.8277225 L44.8881225,13.6636637 L46.7737861,13.6636637 L46.7737861,23.0124862 Z M56.3290922,21.8310416 C56.2197778,21.9637407 56.0705239,22.1060691 55.8813259,22.2580311 C55.6921279,22.409993 55.4545829,22.5512513 55.1686838,22.6818101 C54.8827846,22.8123689 54.5453866,22.9215231 54.1564797,23.0092757 C53.7675728,23.0970284 53.3208621,23.1409041 52.8163341,23.1409041 C52.2235138,23.1409041 51.6822055,23.0413812 51.192393,22.8423325 C50.7025805,22.6432837 50.283198,22.351136 49.9342328,21.9658804 C49.5852677,21.5806248 49.3151391,21.1076236 49.1238389,20.5468627 C48.9325388,19.9861017 48.8368901,19.3440187 48.8368901,18.6205943 L48.8368901,18.0683973 C48.8368901,17.3449729 48.9283344,16.7018198 49.1112258,16.1389185 C49.2941172,15.5760173 49.5526838,15.101946 49.8869336,14.7166904 C50.2211833,14.3314348 50.6258507,14.0382169 51.1009478,13.8370278 C51.5760449,13.6358388 52.1036891,13.5352458 52.6838962,13.5352458 C53.2809209,13.5352458 53.7970032,13.6112256 54.2321585,13.7631875 C54.6673138,13.9151495 55.0309889,14.128107 55.3231947,14.4020665 C55.6154004,14.6760261 55.8434857,15.0034884 56.0074572,15.3844634 C56.1714288,15.7654384 56.2786394,16.1827924 56.3290922,16.6365379 L54.4875745,16.6365379 C54.4497349,16.4011039 54.3908742,16.1881463 54.3109906,15.9976588 C54.231107,15.8071714 54.1217943,15.6445103 53.9830491,15.5096709 C53.8443039,15.3748314 53.6729772,15.271028 53.4690639,15.1982575 C53.2651505,15.125487 53.0223501,15.0891023 52.7406553,15.0891023 C52.0931778,15.0891023 51.6012705,15.3384445 51.2649186,15.8371365 C50.9285666,16.3358285 50.7603932,17.0752941 50.7603932,18.0555556 L50.7603932,18.6205943 C50.7603932,19.6008558 50.9432818,20.3413915 51.3090645,20.8422238 C51.6748473,21.3430561 52.2109001,21.5934685 52.9172392,21.5934685 C53.1442768,21.5934685 53.3418806,21.5784865 53.5100566,21.5485222 C53.6782325,21.5185579 53.822231,21.481103 53.9420564,21.4361566 C54.0618818,21.3912101 54.1617348,21.3419837 54.2416184,21.288476 C54.321502,21.2349683 54.3866692,21.1825315 54.437122,21.1311641 L54.437122,19.5195195 L52.7154291,19.5195195 L52.7154291,18.1005018 L56.3290922,18.1005018 L56.3290922,21.8310416 Z" id="MOBILE"></path>
                </g>
            </g>
        </g>
    </g>
</svg>