<?xml version="1.0" encoding="UTF-8" standalone="no"?>
<svg width="56px" height="88px" viewBox="0 0 56 88" version="1.1" xmlns="http://www.w3.org/2000/svg" xmlns:xlink="http://www.w3.org/1999/xlink" xmlns:sketch="http://www.bohemiancoding.com/sketch/ns">
    <!-- Generator: Sketch 3.3.2 (12043) - http://www.bohemiancoding.com/sketch -->
    <title>logo_white</title>
    <desc>Created with Sketch.</desc>
    <defs>
        <path d="M33.2165134,50.8467349 C44.9053331,48.4005242 53.6766741,38.1428055 53.6766741,25.8600242 C53.6766741,11.7542494 42.1084566,0.319259558 27.838337,0.319259558 C13.5682175,0.319259558 2,11.7542494 2,25.8600242 C2,38.1428055 10.771341,48.4005242 22.4601607,50.8467349 L27.838337,57.1474609 L33.2165134,50.8467349 L33.2165134,50.8467349 Z M27.838337,46.931155 C39.6111856,46.931155 49.1549651,37.4972884 49.1549651,25.8600242 C49.1549651,14.22276 39.6111856,4.78889337 27.838337,4.78889337 C16.0654885,4.78889337 6.52170898,14.22276 6.52170898,25.8600242 C6.52170898,37.4972884 16.0654885,46.931155 27.838337,46.931155 Z M24.5912971,29.1403284 L24.5912971,38.6304065 L20.0868359,38.6304065 L20.0868359,13.0896419 L30.0037722,13.0896419 C31.5112015,13.0896419 32.8494701,13.2913698 34.018618,13.6948317 C35.187766,14.0982936 36.1758889,14.6625471 36.9830164,15.387609 C37.7901439,16.112671 38.4043824,16.9722073 38.8257505,17.9662439 C39.2471185,18.9602805 39.4577994,20.0420099 39.4577994,21.2114647 C39.4577994,22.4510868 39.2471185,23.5620521 38.8257505,24.5443941 C38.4043824,25.5267362 37.7901439,26.3570366 36.9830164,27.0353204 C36.1758889,27.7136041 35.187766,28.2340037 34.018618,28.5965347 C32.8494701,28.9590657 31.5112015,29.1403284 30.0037722,29.1403284 L24.5912971,29.1403284 Z M24.5912971,25.5793564 L30.0037722,25.5793564 C30.8702473,25.5793564 31.6150487,25.4741071 32.2381986,25.2636052 C32.8613485,25.0531034 33.3746976,24.7548969 33.7782614,24.3689768 C34.1818251,23.9830567 34.4755914,23.5240526 34.659569,22.9919507 C34.8435466,22.4598488 34.935534,21.8780537 34.935534,21.2465482 C34.935534,20.6501262 34.8435466,20.077102 34.659569,19.5274582 C34.4755914,18.9778145 34.1818251,18.4895744 33.7782614,18.0627234 C33.3746976,17.6358725 32.8613485,17.2967357 32.2381986,17.0453029 C31.6150487,16.7938701 30.8702473,16.6681556 30.0037722,16.6681556 L24.5912971,16.6681556 L24.5912971,25.5793564 Z" id="path-1"></path>
    </defs>
    <g id="ui-kit" stroke="none" stroke-width="1" fill="none" fill-rule="evenodd" sketch:type="MSPage">
        <g id="ui_webkit" sketch:type="MSArtboardGroup" transform="translate(-208.000000, -464.000000)">
            <g id="logo_white" sketch:type="MSLayerGroup" transform="translate(208.000000, 464.000000)">
                <rect id="bounds" sketch:type="MSShapeGroup" x="0" y="0" width="56" height="88"></rect>
                <g id="label_2-copy-3">
                    <use fill="#FFFFFF" fill-rule="evenodd" sketch:type="MSShapeGroup" xlink:href="#path-1"></use>
                    <use fill="none" xlink:href="#path-1"></use>
                </g>
                <g id="Group" transform="translate(2.000000, 66.405988)" fill-opacity="0.85" fill="#FFFFFF" sketch:type="MSShapeGroup">
                    <path d="M1.48195882,0.340714689 L4.32636365,7.34709302 L7.17076849,0.340714689 L8.65870295,0.340714689 L8.65870295,8.92765648 L7.51137999,8.92765648 L7.51137999,5.58370319 L7.61894152,1.97435677 L4.7625854,8.92765648 L3.88416626,8.92765648 L1.03378579,1.99204965 L1.14732296,5.58370319 L1.14732296,8.92765648 L0,8.92765648 L0,0.340714689 L1.48195882,0.340714689 Z M19.2808685,4.91137395 C19.2808685,5.55618416 19.1982063,6.13316269 19.0328794,6.64232685 C18.8675526,7.15149101 18.633509,7.5849621 18.3307417,7.94275313 C18.0279744,8.30054416 17.6614721,8.57379804 17.2312238,8.76252298 C16.8009756,8.95124792 16.3209373,9.04560898 15.7910945,9.04560898 C15.2771869,9.04560898 14.805116,8.95124792 14.3748677,8.76252298 C13.9446195,8.57379804 13.5741335,8.30054416 13.2633986,7.94275313 C12.9526638,7.5849621 12.7116487,7.15149101 12.5403461,6.64232685 C12.3690436,6.13316269 12.2833936,5.55618416 12.2833936,4.91137395 L12.2833936,4.36879247 C12.2833936,3.72791403 12.3690436,3.1509355 12.5403461,2.63783957 C12.7116487,2.12474364 12.9506719,1.6893067 13.257423,1.33151566 C13.5641741,0.973724635 13.9326682,0.699487821 14.3629165,0.508796998 C14.7931647,0.318106174 15.2652356,0.222762192 15.7791432,0.222762192 C16.308986,0.222762192 16.7900202,0.318106174 17.2222604,0.508796998 C17.6545005,0.699487821 18.0229947,0.973724635 18.3277539,1.33151566 C18.632513,1.6893067 18.8675526,2.12474364 19.0328794,2.63783957 C19.1982063,3.1509355 19.2808685,3.72791403 19.2808685,4.36879247 L19.2808685,4.91137395 Z M18.1395212,4.35699722 C18.1395212,3.84586717 18.0867369,3.39372046 17.9811667,3.0005435 C17.8755965,2.60736654 17.7212274,2.27710285 17.5180546,2.00974252 C17.3148818,1.74238219 17.0668952,1.5398991 16.7740874,1.40228716 C16.4812795,1.26467523 16.1496348,1.19587029 15.7791432,1.19587029 C15.4245868,1.19587029 15.1019054,1.26467523 14.8110895,1.40228716 C14.5202735,1.5398991 14.2722869,1.74238219 14.0671223,2.00974252 C13.8619576,2.27710285 13.7036047,2.60736654 13.5920588,3.0005435 C13.480513,3.39372046 13.4247409,3.84586717 13.4247409,4.35699722 L13.4247409,4.91137395 C13.4247409,5.42643576 13.4815089,5.88054834 13.5950467,6.27372529 C13.7085844,6.66690225 13.8689291,6.99814887 14.0760857,7.26747508 C14.2832423,7.5368013 14.5322248,7.74026732 14.8230408,7.87787925 C15.1138567,8.01549119 15.4365381,8.08429612 15.7910945,8.08429612 C16.1655698,8.08429612 16.4982105,8.01549119 16.7890265,7.87787925 C17.0798424,7.74026732 17.3258371,7.5368013 17.527018,7.26747508 C17.7281989,6.99814887 17.8805763,6.66690225 17.9841545,6.27372529 C18.0877328,5.88054834 18.1395212,5.42643576 18.1395212,4.91137395 L18.1395212,4.35699722 Z M22.9055592,8.92765648 L22.9055592,0.340714689 L25.749964,0.340714689 C26.1961474,0.340714689 26.5945194,0.384946433 26.9450921,0.473411248 C27.2956647,0.561876064 27.5934478,0.699485934 27.8384503,0.886244988 C28.0834528,1.07300404 28.2706876,1.30988961 28.4001605,1.59690878 C28.5296334,1.88392796 28.5943688,2.22795264 28.5943688,2.62899313 C28.5943688,3.03003363 28.4788409,3.38487051 28.2477817,3.69351442 C28.0167224,4.00215833 27.7020085,4.24100975 27.3036305,4.41007584 C27.5466411,4.47691592 27.7627579,4.57520869 27.9519875,4.70495708 C28.141217,4.83470548 28.3005658,4.98804219 28.4300387,5.16497182 C28.5595116,5.34190145 28.6581086,5.54045284 28.7258329,5.76063193 C28.7935572,5.98081103 28.8274188,6.2108161 28.8274188,6.45065404 C28.8274188,6.85169453 28.7586996,7.20653142 28.6212592,7.51517533 C28.4838188,7.82381924 28.2896124,8.08331214 28.0386343,8.29366181 C27.7876561,8.50401148 27.4848934,8.66226283 27.1303369,8.76842061 C26.7757805,8.87457839 26.3813922,8.92765648 25.9471601,8.92765648 L22.9055592,8.92765648 Z M24.0528821,4.91137395 L24.0528821,8.00172938 L25.9471601,8.00172938 C26.222041,8.00172938 26.4660438,7.96536105 26.6791761,7.89262332 C26.8923083,7.81988558 27.0725717,7.7176611 27.2199715,7.58594682 C27.3673714,7.45423254 27.4799115,7.29303241 27.5575952,7.10234159 C27.6352789,6.91165076 27.6741202,6.69835546 27.6741202,6.46244929 C27.6741202,6.22654312 27.6422504,6.01226489 27.5785099,5.81960818 C27.5147695,5.62695147 27.4141805,5.46378548 27.2767401,5.33010532 C27.1392997,5.19642515 26.9650119,5.09321775 26.7538716,5.02048001 C26.5427312,4.94774228 26.2917568,4.91137395 26.0009409,4.91137395 L24.0528821,4.91137395 Z M24.0528821,4.00313972 L25.7858178,4.00313972 C26.0328122,4.00313972 26.2578924,3.97168604 26.4610652,3.90877773 C26.664238,3.84586941 26.8385258,3.75544007 26.9839337,3.63748698 C27.1293417,3.5195339 27.2418818,3.37504353 27.3215574,3.20401156 C27.401233,3.03297958 27.4410702,2.83934283 27.4410702,2.62309551 C27.4410702,2.15128316 27.30164,1.80824141 27.0227754,1.59395997 C26.7439108,1.37967853 26.3196446,1.27253942 25.749964,1.27253942 L24.0528821,1.27253942 L24.0528821,4.00313972 Z M33.6591888,8.92765648 L32.5118658,8.92765648 L32.5118658,0.340714689 L33.6591888,0.340714689 L33.6591888,8.92765648 Z M38.8136434,8.00172938 L42.9368353,8.00172938 L42.9368353,8.92765648 L37.6603448,8.92765648 L37.6603448,0.340714689 L38.8136434,0.340714689 L38.8136434,8.00172938 Z M51.0671588,4.95855495 L47.2965297,4.95855495 L47.2965297,8.00172938 L51.6766741,8.00172938 L51.6766741,8.92765648 L46.1492067,8.92765648 L46.1492067,0.340714689 L51.6169177,0.340714689 L51.6169177,1.27253942 L47.2965297,1.27253942 L47.2965297,4.03262785 L51.0671588,4.03262785 L51.0671588,4.95855495 Z M51.6766741,19.4052109 C51.5724714,19.5278306 51.4301967,19.6593481 51.2498459,19.7997673 C51.069495,19.9401866 50.8430579,20.0707152 50.5705277,20.1913572 C50.2979975,20.3119991 49.9763767,20.4128621 49.6056555,20.4939493 C49.2349343,20.5750365 48.8091122,20.6155795 48.3281766,20.6155795 C47.7630773,20.6155795 47.2470812,20.5236161 46.7801729,20.3396866 C46.3132645,20.1557572 45.9134928,19.8858002 45.5808457,19.5298077 C45.2481985,19.1738151 44.9907015,18.736742 44.8083467,18.2185751 C44.625992,17.7004082 44.5348159,17.1070962 44.5348159,16.4386213 L44.5348159,15.9283679 C44.5348159,15.259893 44.6219842,14.6655922 44.7963234,14.1454475 C44.9706625,13.6253029 45.2171383,13.1872409 45.5357582,12.8312483 C45.854378,12.4752558 46.2401227,12.20431 46.6930037,12.0184028 C47.1458848,11.8324955 47.6488557,11.7395433 48.2019317,11.7395433 C48.7710388,11.7395433 49.2629885,11.8097519 49.6777954,11.9501712 C50.0926024,12.0905905 50.4392716,12.2873723 50.7178135,12.5405225 C50.9963554,12.7936728 51.2137751,13.0962619 51.3700792,13.448299 C51.5263833,13.800336 51.6285805,14.1859888 51.6766741,14.6052689 L49.9212679,14.6052689 C49.8851977,14.3877179 49.8290894,14.1909361 49.7529413,14.0149176 C49.6767931,13.838899 49.572592,13.6885933 49.4403347,13.563996 C49.3080774,13.4393986 49.1447621,13.3434798 48.950384,13.2762368 C48.7560058,13.2089937 48.524559,13.1753727 48.2560367,13.1753727 C47.6388359,13.1753727 47.1699308,13.4057755 46.849307,13.8665881 C46.5286833,14.3274007 46.3683738,15.0106983 46.3683738,15.9165015 L46.3683738,16.4386213 C46.3683738,17.3444245 46.5427104,18.028711 46.8913887,18.4915013 C47.240067,18.9542916 47.7510534,19.1856833 48.4243633,19.1856833 C48.6407843,19.1856833 48.8291479,19.1718393 48.9894598,19.144151 C49.1497717,19.1164627 49.2870366,19.0818529 49.4012589,19.0403204 C49.5154811,18.9987879 49.6106648,18.9533007 49.6868129,18.9038573 C49.7629611,18.8544139 49.825081,18.80596 49.8731746,18.7584944 L49.8731746,17.2692664 L48.23199,17.2692664 L48.23199,15.9580338 L51.6766741,15.9580338 L51.6766741,19.4052109 Z M42.9025821,20.4969159 L41.0990825,20.4969159 L37.5882701,14.8129302 L37.5882701,20.4969159 L35.7847706,20.4969159 L35.7847706,11.8582069 L37.5882701,11.8582069 L41.1050942,17.554059 L41.1050942,11.8582069 L42.9025821,11.8582069 L42.9025821,20.4969159 Z M33.8399301,20.4969159 L32.0364306,20.4969159 L32.0364306,11.8582069 L33.8399301,11.8582069 L33.8399301,20.4969159 Z M26.574766,17.0319392 L25.6369463,18.0287133 L25.6369463,20.4969159 L23.8334467,20.4969159 L23.8334467,11.8582069 L25.6369463,11.8582069 L25.6369463,15.7741052 L26.4304861,14.7001998 L28.6608138,11.8582069 L30.8791182,11.8582069 L27.7710874,15.6969739 L30.9692932,20.4969159 L28.8231288,20.4969159 L26.574766,17.0319392 Z M18.9428904,17.3345314 L17.5061024,17.3345314 L17.5061024,20.4969159 L15.7026029,20.4969159 L15.7026029,11.8582069 L18.9549137,11.8582069 C19.4598961,11.8582069 19.9127703,11.9145716 20.31355,12.0273025 C20.7143297,12.1400335 21.0529834,12.3061609 21.3295214,12.5256896 C21.6060594,12.7452183 21.8184694,13.017153 21.9667579,13.3415017 C22.1150464,13.6658505 22.1891895,14.0416147 22.1891895,14.4688058 C22.1891895,14.7852436 22.1531199,15.0690445 22.0809796,15.320217 C22.0088392,15.5713895 21.9046381,15.7948704 21.768373,15.9906663 C21.6321079,16.1864622 21.4677907,16.3575338 21.2754164,16.5038863 C21.0830422,16.6502388 20.8666244,16.776812 20.6261566,16.8836097 L22.5198311,20.4138514 L22.5198311,20.4969159 L20.5840749,20.4969159 L18.9428904,17.3345314 Z M17.5061024,15.8927688 L18.9609254,15.8927688 C19.1973854,15.8927688 19.4047857,15.8621144 19.5831327,15.8008045 C19.7614797,15.7394947 19.9097659,15.6524756 20.0279959,15.5397446 C20.1462259,15.4270137 20.2353981,15.2925296 20.295515,15.1362885 C20.355632,14.9800473 20.38569,14.8050202 20.38569,14.6112021 C20.38569,14.2037884 20.2684637,13.8833999 20.0340076,13.6500271 C19.7995515,13.4166542 19.4398571,13.2999695 18.9549137,13.2999695 L17.5061024,13.2999695 L17.5061024,15.8927688 Z M12.0865195,18.7169621 L8.92438366,18.7169621 L8.32321715,20.4969159 L6.40549598,20.4969159 L9.66381847,11.8582069 L11.3350614,11.8582069 L14.6114189,20.4969159 L12.6936977,20.4969159 L12.0865195,18.7169621 Z M9.41132853,17.2751996 L11.5995746,17.2751996 L10.4994399,14.0416169 L9.41132853,17.2751996 Z M1.80349953,17.4531949 L1.80349953,20.4969159 L0,20.4969159 L0,11.8582069 L3.41462578,11.8582069 C3.93163157,11.8582069 4.39352322,11.9294044 4.80031459,12.0718014 C5.20710596,12.2141984 5.55177132,12.4129579 5.83432099,12.6680859 C6.11687066,12.9232139 6.33228651,13.225803 6.48057499,13.5758623 C6.62886347,13.9259216 6.7030066,14.3066302 6.7030066,14.7179993 C6.7030066,15.1372794 6.62886347,15.5150214 6.48057499,15.8512365 C6.33228651,16.1874517 6.11687066,16.4742192 5.83432099,16.7115475 C5.55177132,16.9488759 5.20710596,17.1318138 4.80031459,17.2603666 C4.39352322,17.3889195 3.93163157,17.4531949 3.41462578,17.4531949 L1.80349953,17.4531949 Z M1.80349953,16.0114324 L3.41462578,16.0114324 C3.67112478,16.0114324 3.89255223,15.9797891 4.07891478,15.9165015 C4.26527733,15.853214 4.41757132,15.765206 4.53580133,15.652475 C4.65403133,15.5397441 4.7411996,15.4042712 4.79730876,15.2460523 C4.85341791,15.0878334 4.88147207,14.9157729 4.88147207,14.7298657 C4.88147207,14.5439585 4.85341791,14.364976 4.79730876,14.192913 C4.7411996,14.0208499 4.65403133,13.8685665 4.53580133,13.7360582 C4.41757132,13.6035498 4.26527733,13.4977425 4.07891478,13.4186331 C3.89255223,13.3395236 3.67112478,13.2999695 3.41462578,13.2999695 L1.80349953,13.2999695 L1.80349953,16.0114324 Z" id="Path"></path>
                </g>
            </g>
        </g>
    </g>
</svg>